M48
; DRILL file {KiCad 9.0.7} date 2026-05-22T10:25:43-0500
; FORMAT={-:-/ absolute / metric / decimal}
; #@! TF.CreationDate,2026-05-22T10:25:43-05:00
; #@! TF.GenerationSoftware,Kicad,Pcbnew,9.0.7
; #@! TF.FileFunction,Plated,1,2,PTH
FMAT,2
METRIC
; #@! TA.AperFunction,Plated,PTH,ViaDrill
T1C0.300
; #@! TA.AperFunction,Plated,PTH,ComponentDrill
T2C0.700
; #@! TA.AperFunction,Plated,PTH,ComponentDrill
T3C0.900
; #@! TA.AperFunction,Plated,PTH,ComponentDrill
T4C1.000
; #@! TA.AperFunction,Plated,PTH,ComponentDrill
T5C1.100
%
G90
G05
T1
X166.6Y-100.8
X170.4Y-90.2
X173.4Y-89.8
X176.0Y-90.6
T2
X145.0Y-66.38
X145.0Y-74.0
X152.2Y-65.98
X152.2Y-73.6
X156.6Y-101.79
X156.6Y-109.41
X156.6Y-111.59
X156.6Y-119.21
X157.6Y-67.0
X157.6Y-74.62
T3
X144.935Y-62.0
X147.475Y-62.0
X152.13Y-62.6
X154.67Y-62.6
X158.86Y-62.6
X161.4Y-62.6
T4
X138.015Y-63.705
X138.015Y-66.245
X138.015Y-68.785
X138.015Y-71.325
X161.81Y-73.545
X161.81Y-76.085
X161.81Y-78.625
X161.81Y-81.165
X161.81Y-83.705
X161.81Y-86.245
X161.81Y-88.785
X161.81Y-91.325
X161.81Y-93.865
X161.81Y-96.405
X161.81Y-98.945
X161.81Y-101.485
X161.81Y-104.025
X161.81Y-106.565
X161.81Y-109.105
X161.81Y-111.645
X161.81Y-114.185
X161.81Y-116.725
X161.81Y-119.265
X161.81Y-121.805
X167.4Y-62.2
X177.4Y-62.2
X179.59Y-73.545
X179.59Y-76.085
X179.59Y-78.625
X179.59Y-81.165
X179.59Y-83.705
X179.59Y-86.245
X179.59Y-88.785
X179.59Y-91.325
X179.59Y-93.865
X179.59Y-96.405
X179.59Y-98.945
X179.59Y-101.485
X179.59Y-104.025
X179.59Y-106.565
X179.59Y-109.105
X179.59Y-111.645
X179.59Y-114.185
X179.59Y-116.725
X179.59Y-119.265
X179.59Y-121.805
T5
X152.3Y-106.5
X152.3Y-119.2
X187.45Y-49.05
X187.45Y-53.55
X187.6Y-58.9
X187.6Y-63.4
X187.7Y-67.5
X187.7Y-72.0
X187.7Y-76.05
X187.7Y-80.55
X193.95Y-49.05
X193.95Y-53.55
X194.1Y-58.9
X194.1Y-63.4
X194.2Y-67.5
X194.2Y-72.0
X194.2Y-76.05
X194.2Y-80.55
M30
