%TF.GenerationSoftware,KiCad,Pcbnew,9.0.7*%
%TF.CreationDate,2026-05-18T15:38:56-05:00*%
%TF.ProjectId,digital-name-tag,64696769-7461-46c2-9d6e-616d652d7461,rev?*%
%TF.SameCoordinates,Original*%
%TF.FileFunction,Legend,Bot*%
%TF.FilePolarity,Positive*%
%FSLAX46Y46*%
G04 Gerber Fmt 4.6, Leading zero omitted, Abs format (unit mm)*
G04 Created by KiCad (PCBNEW 9.0.7) date 2026-05-18 15:38:56*
%MOMM*%
%LPD*%
G01*
G04 APERTURE LIST*
%ADD10C,0.150000*%
G04 APERTURE END LIST*
D10*
G36*
X155683803Y-37363712D02*
G01*
X155425882Y-37363712D01*
X155425882Y-37449685D01*
X155513810Y-37449685D01*
X155513810Y-38043684D01*
X155425882Y-38043684D01*
X155425882Y-38129658D01*
X155683803Y-38129658D01*
X155683803Y-38043684D01*
X155597829Y-38043684D01*
X155597829Y-37449685D01*
X155683803Y-37449685D01*
X155683803Y-37363712D01*
G37*
G36*
X154789385Y-37359804D02*
G01*
X154845561Y-37417140D01*
X154845561Y-37531751D01*
X154675568Y-37531751D01*
X154675568Y-37617725D01*
X154845561Y-37617725D01*
X154845561Y-38129658D01*
X154929581Y-38129658D01*
X154929581Y-37617725D01*
X155101528Y-37617725D01*
X155101528Y-37531751D01*
X154929581Y-37531751D01*
X154929581Y-37399249D01*
X154926669Y-37382419D01*
X154918346Y-37369635D01*
X154837929Y-37286531D01*
X154823812Y-37277020D01*
X154806849Y-37273831D01*
X154589595Y-37273831D01*
X154589595Y-37359804D01*
X154789385Y-37359804D01*
G37*
G36*
X153600900Y-37363712D02*
G01*
X153008855Y-37363712D01*
X153008855Y-37449685D01*
X153516880Y-37449685D01*
X153516880Y-37699790D01*
X153092875Y-37699790D01*
X153092875Y-37785764D01*
X153516880Y-37785764D01*
X153516880Y-38129658D01*
X153600900Y-38129658D01*
X153600900Y-37363712D01*
G37*
G36*
X152739609Y-37534390D02*
G01*
X152750996Y-37541582D01*
X152836603Y-37629876D01*
X152847404Y-37644500D01*
X152850586Y-37657841D01*
X152850586Y-38003872D01*
X152847316Y-38021685D01*
X152838007Y-38034708D01*
X152750996Y-38115980D01*
X152737646Y-38123326D01*
X152722969Y-38125750D01*
X152462117Y-38125750D01*
X152443255Y-38122969D01*
X152432686Y-38115980D01*
X152351292Y-38033304D01*
X152341767Y-38019549D01*
X152338653Y-38003872D01*
X152338653Y-37674755D01*
X152422672Y-37674755D01*
X152422672Y-37985554D01*
X152478848Y-38044356D01*
X152706238Y-38044356D01*
X152766566Y-37985554D01*
X152766566Y-37674755D01*
X152706238Y-37613145D01*
X152477444Y-37613145D01*
X152422672Y-37674755D01*
X152338653Y-37674755D01*
X152338653Y-37660650D01*
X152341438Y-37646356D01*
X152349888Y-37634028D01*
X152428473Y-37545734D01*
X152443494Y-37535103D01*
X152459309Y-37531751D01*
X152722969Y-37531751D01*
X152739609Y-37534390D01*
G37*
G36*
X151655505Y-38083374D02*
G01*
X151689028Y-38117079D01*
X151702778Y-38126557D01*
X151718459Y-38129658D01*
X151973204Y-38129658D01*
X151988701Y-38126820D01*
X152001170Y-38118483D01*
X152083785Y-38036845D01*
X152093267Y-38022994D01*
X152096364Y-38007292D01*
X152096364Y-37531751D01*
X152012344Y-37531751D01*
X152012344Y-37990561D01*
X151955191Y-38048264D01*
X151734823Y-38048264D01*
X151676266Y-37986348D01*
X151676266Y-37531751D01*
X151592247Y-37531751D01*
X151592247Y-38003201D01*
X151597864Y-38020115D01*
X151572707Y-38048264D01*
X151504319Y-38048264D01*
X151504319Y-38129658D01*
X151589682Y-38129658D01*
X151608346Y-38126547D01*
X151619113Y-38118483D01*
X151655505Y-38083374D01*
G37*
G36*
X151197123Y-37578096D02*
G01*
X151163600Y-37544391D01*
X151149854Y-37534862D01*
X151134230Y-37531751D01*
X150961001Y-37531751D01*
X150945514Y-37534616D01*
X150933035Y-37543047D01*
X150850664Y-37624869D01*
X150841135Y-37638724D01*
X150838025Y-37654422D01*
X150838025Y-38129658D01*
X150916182Y-38129658D01*
X150916182Y-37671031D01*
X150976571Y-37613145D01*
X151117072Y-37613145D01*
X151176057Y-37675244D01*
X151176057Y-38129658D01*
X151260076Y-38129658D01*
X151260076Y-37658330D01*
X151254459Y-37641355D01*
X151279616Y-37613145D01*
X151348004Y-37613145D01*
X151348004Y-37531751D01*
X151260015Y-37531751D01*
X151244770Y-37534649D01*
X151233454Y-37542986D01*
X151197123Y-37578096D01*
G37*
G36*
X150171730Y-37531751D02*
G01*
X150390633Y-37531751D01*
X150405056Y-37534802D01*
X150418660Y-37544452D01*
X150587065Y-37715055D01*
X150596541Y-37728923D01*
X150599644Y-37744731D01*
X150599644Y-37918143D01*
X150596541Y-37933951D01*
X150587065Y-37947819D01*
X150414569Y-38118422D01*
X150401801Y-38126751D01*
X150385076Y-38129658D01*
X150087711Y-38129658D01*
X150087711Y-38048264D01*
X150171730Y-38048264D01*
X150367430Y-38048264D01*
X150515624Y-37900863D01*
X150515624Y-37760546D01*
X150371643Y-37613145D01*
X150171730Y-37613145D01*
X150171730Y-38048264D01*
X150087711Y-38048264D01*
X150087711Y-37273831D01*
X150171730Y-37273831D01*
X150171730Y-37531751D01*
G37*
G36*
X148587083Y-37531751D02*
G01*
X148587083Y-37613145D01*
X148870954Y-37613145D01*
X149014996Y-37760546D01*
X149014996Y-37900863D01*
X148866741Y-38048264D01*
X148587083Y-38048264D01*
X148587083Y-38129658D01*
X148884448Y-38129658D01*
X148901173Y-38126751D01*
X148913941Y-38118422D01*
X149086437Y-37947819D01*
X149095913Y-37933951D01*
X149099016Y-37918143D01*
X149099016Y-37744731D01*
X149095913Y-37728923D01*
X149086437Y-37715055D01*
X148918093Y-37544452D01*
X148904489Y-37534802D01*
X148890066Y-37531751D01*
X148587083Y-37531751D01*
G37*
G36*
X148266086Y-37613145D02*
G01*
X147981849Y-37613145D01*
X147924696Y-37672435D01*
X147924696Y-37789672D01*
X148224199Y-37789672D01*
X148240902Y-37792582D01*
X148253569Y-37800907D01*
X148336123Y-37886575D01*
X148345604Y-37900426D01*
X148348702Y-37916128D01*
X148348702Y-38000392D01*
X148345604Y-38016094D01*
X148336123Y-38029945D01*
X148254851Y-38117079D01*
X148241101Y-38126557D01*
X148225420Y-38129658D01*
X147754703Y-38129658D01*
X147754703Y-38048264D01*
X147840676Y-38048264D01*
X147924696Y-38048264D01*
X148206186Y-38048264D01*
X148264682Y-37985005D01*
X148264682Y-37932920D01*
X148204781Y-37871065D01*
X147924696Y-37871065D01*
X147924696Y-38048264D01*
X147840676Y-38048264D01*
X147840676Y-37656620D01*
X147843699Y-37642241D01*
X147853255Y-37628654D01*
X147935504Y-37544391D01*
X147949241Y-37534859D01*
X147964813Y-37531751D01*
X148266086Y-37531751D01*
X148266086Y-37613145D01*
G37*
G36*
X147260355Y-38024084D02*
G01*
X147242342Y-38043684D01*
X147174382Y-38043684D01*
X147174382Y-38129658D01*
X147259378Y-38129658D01*
X147274944Y-38126561D01*
X147288627Y-38117079D01*
X147331857Y-38073604D01*
X147341289Y-38059808D01*
X147344375Y-38044112D01*
X147344375Y-37273831D01*
X147260355Y-37273831D01*
X147260355Y-38024084D01*
G37*
G36*
X146510041Y-38024084D02*
G01*
X146492028Y-38043684D01*
X146424068Y-38043684D01*
X146424068Y-38129658D01*
X146509064Y-38129658D01*
X146524630Y-38126561D01*
X146538312Y-38117079D01*
X146581543Y-38073604D01*
X146590975Y-38059808D01*
X146594061Y-38044112D01*
X146594061Y-37273831D01*
X146510041Y-37273831D01*
X146510041Y-38024084D01*
G37*
G36*
X145156570Y-37542315D02*
G01*
X144982058Y-37376290D01*
X144966578Y-37366488D01*
X144954153Y-37363712D01*
X144938937Y-37367146D01*
X144926249Y-37377695D01*
X144916767Y-37391377D01*
X144913670Y-37406943D01*
X144916723Y-37421356D01*
X144926371Y-37434909D01*
X145089525Y-37592506D01*
X145089525Y-37899459D01*
X144924478Y-38061331D01*
X144915076Y-38073161D01*
X144911716Y-38090640D01*
X144914797Y-38104761D01*
X144924356Y-38117140D01*
X144937887Y-38126646D01*
X144952260Y-38129658D01*
X144967660Y-38126530D01*
X144980287Y-38117140D01*
X145155104Y-37942751D01*
X145164737Y-37929411D01*
X145167683Y-37916250D01*
X145167683Y-37575776D01*
X145164644Y-37555505D01*
X145156570Y-37542315D01*
G37*
G36*
X144513112Y-37532545D02*
G01*
X144597131Y-37532545D01*
X144597131Y-37487604D01*
X144594030Y-37471860D01*
X144584553Y-37458051D01*
X144415232Y-37286470D01*
X144401494Y-37276939D01*
X144385922Y-37273831D01*
X144138321Y-37273831D01*
X144122682Y-37276927D01*
X144108890Y-37286409D01*
X144023588Y-37371589D01*
X144014060Y-37385335D01*
X144010949Y-37400959D01*
X144010949Y-37575593D01*
X144014060Y-37591217D01*
X144023588Y-37604963D01*
X144452967Y-38043684D01*
X144010949Y-38043684D01*
X144010949Y-38129658D01*
X144555183Y-38129658D01*
X144570770Y-38126564D01*
X144584553Y-38117079D01*
X144594036Y-38103346D01*
X144597131Y-38087770D01*
X144594035Y-38072130D01*
X144584553Y-38058339D01*
X144094968Y-37560389D01*
X144094968Y-37419705D01*
X144155113Y-37359804D01*
X144367665Y-37359804D01*
X144513112Y-37504701D01*
X144513112Y-37532545D01*
G37*
G36*
X143260635Y-37273831D02*
G01*
X143260635Y-37359804D01*
X143762798Y-37359804D01*
X143762798Y-37531751D01*
X143470439Y-37531751D01*
X143454821Y-37534851D01*
X143441130Y-37544330D01*
X143273274Y-37712369D01*
X143263968Y-37724246D01*
X143260635Y-37741800D01*
X143260635Y-37918265D01*
X143263744Y-37933900D01*
X143273274Y-37947697D01*
X143442534Y-38117140D01*
X143454342Y-38126352D01*
X143471844Y-38129658D01*
X143842604Y-38129658D01*
X143842604Y-38043684D01*
X143488696Y-38043684D01*
X143344654Y-37899398D01*
X143344654Y-37759263D01*
X143487292Y-37617725D01*
X143846817Y-37617725D01*
X143846817Y-37273831D01*
X143260635Y-37273831D01*
G37*
G36*
X143083925Y-37462997D02*
G01*
X143093407Y-37476789D01*
X143096503Y-37492428D01*
X143096503Y-37938110D01*
X143096503Y-37939515D01*
X143083925Y-37967602D01*
X142913199Y-38140465D01*
X142899403Y-38149996D01*
X142883768Y-38153105D01*
X142710233Y-38153105D01*
X142694598Y-38149996D01*
X142680802Y-38140465D01*
X142507267Y-37965343D01*
X142497785Y-37951551D01*
X142494689Y-37935912D01*
X142494689Y-37846580D01*
X142578709Y-37846580D01*
X142578709Y-37918693D01*
X142727025Y-38067131D01*
X142866976Y-38067131D01*
X143012484Y-37921502D01*
X143012484Y-37854884D01*
X142861359Y-37703698D01*
X142721407Y-37703698D01*
X142578709Y-37846580D01*
X142494689Y-37846580D01*
X142494689Y-37829300D01*
X142497787Y-37813671D01*
X142507267Y-37799930D01*
X142673841Y-37630364D01*
X142687587Y-37620836D01*
X142703211Y-37617725D01*
X142878150Y-37617725D01*
X142893776Y-37620860D01*
X142907581Y-37630486D01*
X143012484Y-37736976D01*
X143012484Y-37509586D01*
X142838949Y-37335563D01*
X142897751Y-37276578D01*
X143083925Y-37462997D01*
G37*
G36*
X141923527Y-37542315D02*
G01*
X141915453Y-37555505D01*
X141912414Y-37575776D01*
X141912414Y-37916250D01*
X141915348Y-37929415D01*
X141924931Y-37942751D01*
X142098466Y-38117140D01*
X142110926Y-38126530D01*
X142126188Y-38129658D01*
X142140541Y-38126642D01*
X142153970Y-38117140D01*
X142163384Y-38104776D01*
X142166427Y-38090640D01*
X142163233Y-38074096D01*
X142153909Y-38061331D01*
X141990572Y-37899459D01*
X141990572Y-37592506D01*
X142152505Y-37434909D01*
X142162007Y-37421369D01*
X142165022Y-37406943D01*
X142161951Y-37391368D01*
X142152566Y-37377695D01*
X142139936Y-37367144D01*
X142124783Y-37363712D01*
X142112474Y-37366482D01*
X142097062Y-37376290D01*
X141923527Y-37542315D01*
G37*
G36*
X141351632Y-38129658D02*
G01*
X141435652Y-38129658D01*
X141435652Y-37745464D01*
X141432330Y-37727915D01*
X141423073Y-37716093D01*
X141091758Y-37384961D01*
X141091758Y-37359804D01*
X141593921Y-37359804D01*
X141593921Y-37273831D01*
X141007739Y-37273831D01*
X141007739Y-37400104D01*
X141011074Y-37417711D01*
X141020378Y-37429596D01*
X141351632Y-37762194D01*
X141351632Y-38129658D01*
G37*
G36*
X140650443Y-37277174D02*
G01*
X140662318Y-37286531D01*
X140832983Y-37458478D01*
X140842234Y-37470375D01*
X140845561Y-37488093D01*
X140845561Y-37667001D01*
X140842239Y-37684677D01*
X140832983Y-37696615D01*
X140753237Y-37776971D01*
X140739487Y-37786547D01*
X140723867Y-37789672D01*
X140554607Y-37789672D01*
X140537070Y-37786323D01*
X140525237Y-37776971D01*
X140343398Y-37593239D01*
X140343398Y-37988974D01*
X140428700Y-38074642D01*
X140369959Y-38133565D01*
X140272018Y-38035075D01*
X140262493Y-38021261D01*
X140259378Y-38005521D01*
X140259378Y-37421292D01*
X140343398Y-37421292D01*
X140343398Y-37475819D01*
X140571338Y-37703698D01*
X140707015Y-37703698D01*
X140761542Y-37649171D01*
X140761542Y-37505190D01*
X140616095Y-37359804D01*
X140404947Y-37359804D01*
X140343398Y-37421292D01*
X140259378Y-37421292D01*
X140259378Y-37403279D01*
X140262493Y-37387540D01*
X140272018Y-37373726D01*
X140357320Y-37286470D01*
X140370154Y-37277051D01*
X140386751Y-37273831D01*
X140632948Y-37273831D01*
X140650443Y-37277174D01*
G37*
G36*
X139851004Y-38129658D02*
G01*
X139935024Y-38129658D01*
X139935024Y-37745464D01*
X139931702Y-37727915D01*
X139922445Y-37716093D01*
X139591130Y-37384961D01*
X139591130Y-37359804D01*
X140093293Y-37359804D01*
X140093293Y-37273831D01*
X139507110Y-37273831D01*
X139507110Y-37400104D01*
X139510446Y-37417711D01*
X139519750Y-37429596D01*
X139851004Y-37762194D01*
X139851004Y-38129658D01*
G37*
G36*
X139262868Y-37703698D02*
G01*
X138833000Y-37703698D01*
X138833000Y-37789672D01*
X139262868Y-37789672D01*
X139262868Y-37703698D01*
G37*
G36*
X138326196Y-37287875D02*
G01*
X138311618Y-37277026D01*
X138298292Y-37273831D01*
X138283210Y-37279448D01*
X138264591Y-37294384D01*
X138258541Y-37316024D01*
X138258541Y-38129658D01*
X138336699Y-38129658D01*
X138336699Y-37415736D01*
X138461324Y-37545062D01*
X138520125Y-37490230D01*
X138326196Y-37287875D01*
G37*
G36*
X137575882Y-37287875D02*
G01*
X137561304Y-37277026D01*
X137547978Y-37273831D01*
X137532896Y-37279448D01*
X137514277Y-37294384D01*
X137508227Y-37316024D01*
X137508227Y-38129658D01*
X137586385Y-38129658D01*
X137586385Y-37415736D01*
X137711010Y-37545062D01*
X137769811Y-37490230D01*
X137575882Y-37287875D01*
G37*
G36*
X136734106Y-37277168D02*
G01*
X136745884Y-37286470D01*
X137081413Y-37629570D01*
X137090897Y-37643413D01*
X137093991Y-37659063D01*
X137093991Y-37833452D01*
X137090894Y-37849154D01*
X137081413Y-37863005D01*
X137067667Y-37872534D01*
X137052042Y-37875645D01*
X136671939Y-37875645D01*
X136671939Y-38164829D01*
X136587920Y-38164829D01*
X136587920Y-37875645D01*
X136507808Y-37875645D01*
X136507808Y-37789672D01*
X136587920Y-37789672D01*
X136671939Y-37789672D01*
X137009972Y-37789672D01*
X137009972Y-37675244D01*
X136698501Y-37359804D01*
X136671939Y-37359804D01*
X136671939Y-37789672D01*
X136587920Y-37789672D01*
X136587920Y-37315901D01*
X136591021Y-37300220D01*
X136600498Y-37286470D01*
X136614244Y-37276942D01*
X136629869Y-37273831D01*
X136716575Y-37273831D01*
X136734106Y-37277168D01*
G37*
G36*
X136331099Y-37462997D02*
G01*
X136340581Y-37476789D01*
X136343677Y-37492428D01*
X136343677Y-37938110D01*
X136343677Y-37939515D01*
X136331099Y-37967602D01*
X136160373Y-38140465D01*
X136146576Y-38149996D01*
X136130942Y-38153105D01*
X135957407Y-38153105D01*
X135941772Y-38149996D01*
X135927976Y-38140465D01*
X135754441Y-37965343D01*
X135744959Y-37951551D01*
X135741863Y-37935912D01*
X135741863Y-37846580D01*
X135825882Y-37846580D01*
X135825882Y-37918693D01*
X135974199Y-38067131D01*
X136114150Y-38067131D01*
X136259658Y-37921502D01*
X136259658Y-37854884D01*
X136108532Y-37703698D01*
X135968581Y-37703698D01*
X135825882Y-37846580D01*
X135741863Y-37846580D01*
X135741863Y-37829300D01*
X135744961Y-37813671D01*
X135754441Y-37799930D01*
X135921015Y-37630364D01*
X135934761Y-37620836D01*
X135950385Y-37617725D01*
X136125324Y-37617725D01*
X136140949Y-37620860D01*
X136154755Y-37630486D01*
X136259658Y-37736976D01*
X136259658Y-37509586D01*
X136086123Y-37335563D01*
X136144924Y-37276578D01*
X136331099Y-37462997D01*
G37*
G36*
X155748993Y-40726996D02*
G01*
X155762021Y-40736352D01*
X155841767Y-40823180D01*
X155852564Y-40837813D01*
X155855750Y-40851207D01*
X155855750Y-41367841D01*
X155852589Y-41384689D01*
X155843171Y-41398677D01*
X155760617Y-41478483D01*
X155747905Y-41486763D01*
X155731186Y-41489658D01*
X155387109Y-41489658D01*
X155371475Y-41486573D01*
X155357739Y-41477140D01*
X155272376Y-41393060D01*
X155263117Y-41381188D01*
X155259797Y-41363628D01*
X155259797Y-40868060D01*
X155343817Y-40868060D01*
X155343817Y-41343539D01*
X155404084Y-41403684D01*
X155715127Y-41403684D01*
X155769776Y-41347752D01*
X155769776Y-40866655D01*
X155713722Y-40805106D01*
X155404084Y-40805106D01*
X155343817Y-40868060D01*
X155259797Y-40868060D01*
X155259797Y-40852611D01*
X155262696Y-40835850D01*
X155270971Y-40823180D01*
X155354930Y-40736352D01*
X155366946Y-40727109D01*
X155385704Y-40723712D01*
X155731186Y-40723712D01*
X155748993Y-40726996D01*
G37*
G36*
X155101528Y-41747578D02*
G01*
X155017508Y-41747578D01*
X155017508Y-41489658D01*
X154798667Y-41489658D01*
X154784182Y-41486629D01*
X154770579Y-41477079D01*
X154602234Y-41306903D01*
X154592710Y-41293089D01*
X154589595Y-41277349D01*
X154589595Y-41105158D01*
X154673614Y-41105158D01*
X154673614Y-41260985D01*
X154817595Y-41408264D01*
X155017508Y-41408264D01*
X155017508Y-40962093D01*
X154821809Y-40962093D01*
X154673614Y-41105158D01*
X154589595Y-41105158D01*
X154589595Y-41088916D01*
X154592707Y-41073229D01*
X154602234Y-41059424D01*
X154774731Y-40893461D01*
X154792988Y-40887843D01*
X155101528Y-40887843D01*
X155101528Y-41747578D01*
G37*
G36*
X154235766Y-40895276D02*
G01*
X154251868Y-40907260D01*
X154337231Y-40995921D01*
X154348029Y-41010605D01*
X154351214Y-41024009D01*
X154351214Y-41364483D01*
X154348319Y-41381265D01*
X154340040Y-41394036D01*
X154253028Y-41478483D01*
X154240551Y-41486817D01*
X154225001Y-41489658D01*
X153839281Y-41489658D01*
X153839281Y-41411500D01*
X154207416Y-41411500D01*
X154267194Y-41347691D01*
X154267194Y-41235645D01*
X153843189Y-41235645D01*
X153843189Y-41039762D01*
X153925254Y-41039762D01*
X153925254Y-41149672D01*
X154265790Y-41149672D01*
X154265790Y-41041167D01*
X154204607Y-40977725D01*
X153985033Y-40977725D01*
X153925254Y-41039762D01*
X153843189Y-41039762D01*
X153843189Y-41022299D01*
X153846227Y-41007871D01*
X153855828Y-40994272D01*
X153938321Y-40907199D01*
X153954281Y-40895165D01*
X153967752Y-40891751D01*
X154221093Y-40891751D01*
X154235766Y-40895276D01*
G37*
G36*
X153448492Y-41120362D02*
G01*
X153448492Y-41489658D01*
X153532512Y-41489658D01*
X153532512Y-41021078D01*
X153535357Y-41004175D01*
X153543686Y-40990303D01*
X153558731Y-40980842D01*
X153575743Y-40977725D01*
X153600900Y-40977725D01*
X153600900Y-40891751D01*
X153532390Y-40891751D01*
X153511237Y-40897388D01*
X153480000Y-40919167D01*
X153455753Y-40948635D01*
X153448492Y-40977541D01*
X153448492Y-41004286D01*
X153351589Y-40905795D01*
X153336708Y-40895035D01*
X153322096Y-40891751D01*
X153219637Y-40891751D01*
X153202977Y-40894973D01*
X153190083Y-40904391D01*
X153101667Y-40990059D01*
X153092154Y-41004057D01*
X153088967Y-41020894D01*
X153088967Y-41063026D01*
X153172986Y-41063026D01*
X153172986Y-41037869D01*
X153236245Y-40977725D01*
X153303717Y-40977725D01*
X153448492Y-41120362D01*
G37*
G36*
X152767971Y-40973145D02*
G01*
X152483733Y-40973145D01*
X152426580Y-41032435D01*
X152426580Y-41149672D01*
X152726083Y-41149672D01*
X152742786Y-41152582D01*
X152755453Y-41160907D01*
X152838007Y-41246575D01*
X152847489Y-41260426D01*
X152850586Y-41276128D01*
X152850586Y-41360392D01*
X152847489Y-41376094D01*
X152838007Y-41389945D01*
X152756735Y-41477079D01*
X152742986Y-41486557D01*
X152727304Y-41489658D01*
X152256587Y-41489658D01*
X152256587Y-41408264D01*
X152342561Y-41408264D01*
X152426580Y-41408264D01*
X152708070Y-41408264D01*
X152766566Y-41345005D01*
X152766566Y-41292920D01*
X152706666Y-41231065D01*
X152426580Y-41231065D01*
X152426580Y-41408264D01*
X152342561Y-41408264D01*
X152342561Y-41016620D01*
X152345583Y-41002241D01*
X152355139Y-40988654D01*
X152437388Y-40904391D01*
X152451125Y-40894859D01*
X152466697Y-40891751D01*
X152767971Y-40891751D01*
X152767971Y-40973145D01*
G37*
G36*
X151762240Y-41384206D02*
G01*
X151743860Y-41403684D01*
X151674617Y-41403684D01*
X151674617Y-41489658D01*
X151760408Y-41489658D01*
X151776157Y-41486569D01*
X151789961Y-41477140D01*
X151833620Y-41433726D01*
X151843148Y-41419980D01*
X151846259Y-41404356D01*
X151846259Y-40977725D01*
X152018206Y-40977725D01*
X152018206Y-40891751D01*
X151846259Y-40891751D01*
X151846259Y-40633831D01*
X151762240Y-40633831D01*
X151762240Y-40891751D01*
X151588339Y-40891751D01*
X151588339Y-40977725D01*
X151762240Y-40977725D01*
X151762240Y-41384206D01*
G37*
G36*
X151095945Y-40633831D02*
G01*
X151011926Y-40633831D01*
X151011926Y-40719804D01*
X151095945Y-40719804D01*
X151095945Y-40633831D01*
G37*
G36*
X151095945Y-40891751D02*
G01*
X151011926Y-40891751D01*
X151011926Y-41489658D01*
X151095945Y-41489658D01*
X151095945Y-40891751D01*
G37*
G36*
X150446809Y-40938096D02*
G01*
X150413286Y-40904391D01*
X150399540Y-40894862D01*
X150383916Y-40891751D01*
X150210687Y-40891751D01*
X150195200Y-40894616D01*
X150182721Y-40903047D01*
X150100350Y-40984869D01*
X150090821Y-40998724D01*
X150087711Y-41014422D01*
X150087711Y-41489658D01*
X150165868Y-41489658D01*
X150165868Y-41031031D01*
X150226257Y-40973145D01*
X150366758Y-40973145D01*
X150425743Y-41035244D01*
X150425743Y-41489658D01*
X150509762Y-41489658D01*
X150509762Y-41018330D01*
X150504145Y-41001355D01*
X150529302Y-40973145D01*
X150597690Y-40973145D01*
X150597690Y-40891751D01*
X150509701Y-40891751D01*
X150494456Y-40894649D01*
X150483140Y-40902986D01*
X150446809Y-40938096D01*
G37*
G36*
X149656283Y-40890983D02*
G01*
X149667063Y-40899139D01*
X149836751Y-41071086D01*
X149846230Y-41084946D01*
X149849330Y-41100701D01*
X149849330Y-41195101D01*
X149846007Y-41212777D01*
X149836751Y-41224715D01*
X149671215Y-41390983D01*
X149657456Y-41400557D01*
X149641784Y-41403684D01*
X149508550Y-41403684D01*
X149491013Y-41400311D01*
X149479118Y-41390861D01*
X149382337Y-41292554D01*
X149382337Y-41519394D01*
X149435643Y-41571723D01*
X149627862Y-41571723D01*
X149696556Y-41504251D01*
X149755479Y-41562076D01*
X149674146Y-41644874D01*
X149660378Y-41654544D01*
X149644715Y-41657697D01*
X149418913Y-41657697D01*
X149401359Y-41654364D01*
X149389481Y-41645057D01*
X149310957Y-41566411D01*
X149301430Y-41552606D01*
X149298318Y-41536919D01*
X149298318Y-41033900D01*
X149382337Y-41033900D01*
X149382337Y-41175134D01*
X149525403Y-41317711D01*
X149625054Y-41317711D01*
X149765310Y-41177943D01*
X149765310Y-41117798D01*
X149620840Y-40973817D01*
X149442665Y-40973817D01*
X149382337Y-41033900D01*
X149298318Y-41033900D01*
X149298318Y-41015643D01*
X149301651Y-40998089D01*
X149310957Y-40986212D01*
X149396442Y-40899078D01*
X149409210Y-40890749D01*
X149425935Y-40887843D01*
X149637632Y-40887843D01*
X149656283Y-40890983D01*
G37*
G36*
X148180662Y-40723712D02*
G01*
X147922742Y-40723712D01*
X147922742Y-40809685D01*
X148010669Y-40809685D01*
X148010669Y-41403684D01*
X147922742Y-41403684D01*
X147922742Y-41489658D01*
X148180662Y-41489658D01*
X148180662Y-41403684D01*
X148094689Y-41403684D01*
X148094689Y-40809685D01*
X148180662Y-40809685D01*
X148180662Y-40723712D01*
G37*
G36*
X147445553Y-40938096D02*
G01*
X147412030Y-40904391D01*
X147398284Y-40894862D01*
X147382660Y-40891751D01*
X147209431Y-40891751D01*
X147193944Y-40894616D01*
X147181465Y-40903047D01*
X147099094Y-40984869D01*
X147089565Y-40998724D01*
X147086454Y-41014422D01*
X147086454Y-41489658D01*
X147164612Y-41489658D01*
X147164612Y-41031031D01*
X147225001Y-40973145D01*
X147365502Y-40973145D01*
X147424487Y-41035244D01*
X147424487Y-41489658D01*
X147508506Y-41489658D01*
X147508506Y-41018330D01*
X147502889Y-41001355D01*
X147528046Y-40973145D01*
X147596434Y-40973145D01*
X147596434Y-40891751D01*
X147508445Y-40891751D01*
X147493199Y-40894649D01*
X147481884Y-40902986D01*
X147445553Y-40938096D01*
G37*
G36*
X146426022Y-41038724D02*
G01*
X146487510Y-40977725D01*
X146702566Y-40977725D01*
X146743110Y-41019307D01*
X146351650Y-41327786D01*
X146339925Y-41341908D01*
X146336140Y-41358499D01*
X146339378Y-41376478D01*
X146348780Y-41390556D01*
X146437135Y-41477140D01*
X146450931Y-41486572D01*
X146466627Y-41489658D01*
X146719052Y-41489658D01*
X146734729Y-41486544D01*
X146748483Y-41477018D01*
X146835495Y-41392327D01*
X146844909Y-41378271D01*
X146848073Y-41361308D01*
X146848073Y-41321863D01*
X146764054Y-41321863D01*
X146764054Y-41342684D01*
X146702566Y-41403684D01*
X146484701Y-41403684D01*
X146442814Y-41362102D01*
X146832015Y-41055027D01*
X146841862Y-41043031D01*
X146847402Y-41024314D01*
X146846071Y-41007430D01*
X146836228Y-40992257D01*
X146752208Y-40904330D01*
X146738270Y-40894914D01*
X146721434Y-40891751D01*
X146470840Y-40891751D01*
X146455168Y-40894878D01*
X146441409Y-40904452D01*
X146354642Y-40990425D01*
X146345112Y-41004281D01*
X146342002Y-41019979D01*
X146342002Y-41065102D01*
X146426022Y-41065102D01*
X146426022Y-41038724D01*
G37*
G36*
X145759727Y-41384206D02*
G01*
X145741348Y-41403684D01*
X145672105Y-41403684D01*
X145672105Y-41489658D01*
X145757896Y-41489658D01*
X145773645Y-41486569D01*
X145787449Y-41477140D01*
X145831107Y-41433726D01*
X145840636Y-41419980D01*
X145843747Y-41404356D01*
X145843747Y-40977725D01*
X146015694Y-40977725D01*
X146015694Y-40891751D01*
X145843747Y-40891751D01*
X145843747Y-40633831D01*
X145759727Y-40633831D01*
X145759727Y-40891751D01*
X145585826Y-40891751D01*
X145585826Y-40977725D01*
X145759727Y-40977725D01*
X145759727Y-41384206D01*
G37*
G36*
X145195038Y-41120362D02*
G01*
X145195038Y-41489658D01*
X145279057Y-41489658D01*
X145279057Y-41021078D01*
X145281903Y-41004175D01*
X145290232Y-40990303D01*
X145305276Y-40980842D01*
X145322288Y-40977725D01*
X145347445Y-40977725D01*
X145347445Y-40891751D01*
X145278935Y-40891751D01*
X145257782Y-40897388D01*
X145226545Y-40919167D01*
X145202299Y-40948635D01*
X145195038Y-40977541D01*
X145195038Y-41004286D01*
X145098135Y-40905795D01*
X145083254Y-40895035D01*
X145068642Y-40891751D01*
X144966182Y-40891751D01*
X144949522Y-40894973D01*
X144936629Y-40904391D01*
X144848213Y-40990059D01*
X144838700Y-41004057D01*
X144835512Y-41020894D01*
X144835512Y-41063026D01*
X144919532Y-41063026D01*
X144919532Y-41037869D01*
X144982791Y-40977725D01*
X145050263Y-40977725D01*
X145195038Y-41120362D01*
G37*
G36*
X144152365Y-41443374D02*
G01*
X144185887Y-41477079D01*
X144199637Y-41486557D01*
X144215319Y-41489658D01*
X144470064Y-41489658D01*
X144485561Y-41486820D01*
X144498030Y-41478483D01*
X144580645Y-41396845D01*
X144590126Y-41382994D01*
X144593224Y-41367292D01*
X144593224Y-40891751D01*
X144509204Y-40891751D01*
X144509204Y-41350561D01*
X144452051Y-41408264D01*
X144231683Y-41408264D01*
X144173126Y-41346348D01*
X144173126Y-40891751D01*
X144089106Y-40891751D01*
X144089106Y-41363201D01*
X144094724Y-41380115D01*
X144069567Y-41408264D01*
X144001179Y-41408264D01*
X144001179Y-41489658D01*
X144086542Y-41489658D01*
X144105206Y-41486547D01*
X144115973Y-41478483D01*
X144152365Y-41443374D01*
G37*
G36*
X143334884Y-40891751D02*
G01*
X143334884Y-40973145D01*
X143618756Y-40973145D01*
X143762798Y-41120546D01*
X143762798Y-41260863D01*
X143614542Y-41408264D01*
X143334884Y-41408264D01*
X143334884Y-41489658D01*
X143632250Y-41489658D01*
X143648974Y-41486751D01*
X143661742Y-41478422D01*
X143834239Y-41307819D01*
X143843715Y-41293951D01*
X143846817Y-41278143D01*
X143846817Y-41104731D01*
X143843715Y-41088923D01*
X143834239Y-41075055D01*
X143665894Y-40904452D01*
X143652291Y-40894802D01*
X143637868Y-40891751D01*
X143334884Y-40891751D01*
G37*
G36*
X142758471Y-41384206D02*
G01*
X142740092Y-41403684D01*
X142670849Y-41403684D01*
X142670849Y-41489658D01*
X142756639Y-41489658D01*
X142772389Y-41486569D01*
X142786193Y-41477140D01*
X142829851Y-41433726D01*
X142839380Y-41419980D01*
X142842491Y-41404356D01*
X142842491Y-40977725D01*
X143014438Y-40977725D01*
X143014438Y-40891751D01*
X142842491Y-40891751D01*
X142842491Y-40633831D01*
X142758471Y-40633831D01*
X142758471Y-40891751D01*
X142584570Y-40891751D01*
X142584570Y-40977725D01*
X142758471Y-40977725D01*
X142758471Y-41384206D01*
G37*
G36*
X142092177Y-40633831D02*
G01*
X142008157Y-40633831D01*
X142008157Y-40719804D01*
X142092177Y-40719804D01*
X142092177Y-40633831D01*
G37*
G36*
X142092177Y-40891751D02*
G01*
X142008157Y-40891751D01*
X142008157Y-41489658D01*
X142092177Y-41489658D01*
X142092177Y-40891751D01*
G37*
G36*
X141484899Y-40894390D02*
G01*
X141496285Y-40901582D01*
X141581892Y-40989876D01*
X141592693Y-41004500D01*
X141595875Y-41017841D01*
X141595875Y-41363872D01*
X141592605Y-41381685D01*
X141583297Y-41394708D01*
X141496285Y-41475980D01*
X141482935Y-41483326D01*
X141468258Y-41485750D01*
X141207407Y-41485750D01*
X141188545Y-41482969D01*
X141177976Y-41475980D01*
X141096582Y-41393304D01*
X141087056Y-41379549D01*
X141083942Y-41363872D01*
X141083942Y-41034755D01*
X141167962Y-41034755D01*
X141167962Y-41345554D01*
X141224138Y-41404356D01*
X141451528Y-41404356D01*
X141511856Y-41345554D01*
X141511856Y-41034755D01*
X141451528Y-40973145D01*
X141222733Y-40973145D01*
X141167962Y-41034755D01*
X141083942Y-41034755D01*
X141083942Y-41020650D01*
X141086728Y-41006356D01*
X141095177Y-40994028D01*
X141173763Y-40905734D01*
X141188783Y-40895103D01*
X141204598Y-40891751D01*
X141468258Y-40891751D01*
X141484899Y-40894390D01*
G37*
G36*
X140692726Y-40938096D02*
G01*
X140659204Y-40904391D01*
X140645458Y-40894862D01*
X140629834Y-40891751D01*
X140456605Y-40891751D01*
X140441117Y-40894616D01*
X140428639Y-40903047D01*
X140346268Y-40984869D01*
X140336738Y-40998724D01*
X140333628Y-41014422D01*
X140333628Y-41489658D01*
X140411786Y-41489658D01*
X140411786Y-41031031D01*
X140472175Y-40973145D01*
X140612676Y-40973145D01*
X140671660Y-41035244D01*
X140671660Y-41489658D01*
X140755680Y-41489658D01*
X140755680Y-41018330D01*
X140750062Y-41001355D01*
X140775219Y-40973145D01*
X140843607Y-40973145D01*
X140843607Y-40891751D01*
X140755619Y-40891751D01*
X140740373Y-40894649D01*
X140729057Y-40902986D01*
X140692726Y-40938096D01*
G37*
G36*
X139673196Y-41038724D02*
G01*
X139734684Y-40977725D01*
X139949740Y-40977725D01*
X139990284Y-41019307D01*
X139598824Y-41327786D01*
X139587099Y-41341908D01*
X139583314Y-41358499D01*
X139586551Y-41376478D01*
X139595954Y-41390556D01*
X139684309Y-41477140D01*
X139698104Y-41486572D01*
X139713801Y-41489658D01*
X139966226Y-41489658D01*
X139981903Y-41486544D01*
X139995657Y-41477018D01*
X140082669Y-41392327D01*
X140092083Y-41378271D01*
X140095247Y-41361308D01*
X140095247Y-41321863D01*
X140011228Y-41321863D01*
X140011228Y-41342684D01*
X139949740Y-41403684D01*
X139731875Y-41403684D01*
X139689987Y-41362102D01*
X140079188Y-41055027D01*
X140089035Y-41043031D01*
X140094576Y-41024314D01*
X140093244Y-41007430D01*
X140083401Y-40992257D01*
X139999382Y-40904330D01*
X139985444Y-40894914D01*
X139968607Y-40891751D01*
X139718014Y-40891751D01*
X139702342Y-40894878D01*
X139688583Y-40904452D01*
X139601816Y-40990425D01*
X139592286Y-41004281D01*
X139589176Y-41019979D01*
X139589176Y-41065102D01*
X139673196Y-41065102D01*
X139673196Y-41038724D01*
G37*
G36*
X139176894Y-40973817D02*
G01*
X139008855Y-40973817D01*
X139008855Y-41145764D01*
X139176894Y-41145764D01*
X139176894Y-40973817D01*
G37*
G36*
X139176894Y-41317711D02*
G01*
X139008855Y-41317711D01*
X139008855Y-41489658D01*
X139176894Y-41489658D01*
X139176894Y-41317711D01*
G37*
G36*
X155105436Y-43169658D02*
G01*
X155021416Y-43169658D01*
X155021416Y-42825764D01*
X154912362Y-42825764D01*
X154593503Y-43144378D01*
X154593503Y-43169658D01*
X154509483Y-43169658D01*
X154509483Y-43127587D01*
X154512608Y-43111904D01*
X154522184Y-43098094D01*
X154792072Y-42825764D01*
X154633986Y-42825764D01*
X154618352Y-42822679D01*
X154604616Y-42813246D01*
X154522062Y-42729654D01*
X154512578Y-42715921D01*
X154509483Y-42700345D01*
X154509483Y-42548426D01*
X154593503Y-42548426D01*
X154593503Y-42682393D01*
X154652243Y-42739790D01*
X155021416Y-42739790D01*
X155021416Y-42489685D01*
X154653647Y-42489685D01*
X154593503Y-42548426D01*
X154509483Y-42548426D01*
X154509483Y-42529131D01*
X154512578Y-42513554D01*
X154522062Y-42499822D01*
X154607424Y-42416229D01*
X154621161Y-42406797D01*
X154636795Y-42403712D01*
X155105436Y-42403712D01*
X155105436Y-43169658D01*
G37*
G36*
X154235766Y-42575276D02*
G01*
X154251868Y-42587260D01*
X154337231Y-42675921D01*
X154348029Y-42690605D01*
X154351214Y-42704009D01*
X154351214Y-43044483D01*
X154348319Y-43061265D01*
X154340040Y-43074036D01*
X154253028Y-43158483D01*
X154240551Y-43166817D01*
X154225001Y-43169658D01*
X153839281Y-43169658D01*
X153839281Y-43091500D01*
X154207416Y-43091500D01*
X154267194Y-43027691D01*
X154267194Y-42915645D01*
X153843189Y-42915645D01*
X153843189Y-42719762D01*
X153925254Y-42719762D01*
X153925254Y-42829672D01*
X154265790Y-42829672D01*
X154265790Y-42721167D01*
X154204607Y-42657725D01*
X153985033Y-42657725D01*
X153925254Y-42719762D01*
X153843189Y-42719762D01*
X153843189Y-42702299D01*
X153846227Y-42687871D01*
X153855828Y-42674272D01*
X153938321Y-42587199D01*
X153954281Y-42575165D01*
X153967752Y-42571751D01*
X154221093Y-42571751D01*
X154235766Y-42575276D01*
G37*
G36*
X153403474Y-42579239D02*
G01*
X153416191Y-42587566D01*
X153588321Y-42757192D01*
X153597799Y-42770942D01*
X153600900Y-42786624D01*
X153600900Y-42953442D01*
X153597799Y-42969123D01*
X153588321Y-42982873D01*
X153420343Y-43152500D01*
X153406799Y-43162051D01*
X153392377Y-43165078D01*
X153176894Y-43165078D01*
X153176894Y-43419762D01*
X153006901Y-43419762D01*
X153006901Y-43333789D01*
X153092875Y-43333789D01*
X153092875Y-43083684D01*
X153176894Y-43083684D01*
X153372777Y-43083684D01*
X153516880Y-42937505D01*
X153516880Y-42803904D01*
X153368564Y-42657725D01*
X153176894Y-42657725D01*
X153176894Y-43083684D01*
X153092875Y-43083684D01*
X153092875Y-42576331D01*
X153386760Y-42576331D01*
X153403474Y-42579239D01*
G37*
G36*
X152405819Y-43123374D02*
G01*
X152439342Y-43157079D01*
X152453092Y-43166557D01*
X152468773Y-43169658D01*
X152723518Y-43169658D01*
X152739015Y-43166820D01*
X152751484Y-43158483D01*
X152834099Y-43076845D01*
X152843581Y-43062994D01*
X152846678Y-43047292D01*
X152846678Y-42571751D01*
X152762658Y-42571751D01*
X152762658Y-43030561D01*
X152705505Y-43088264D01*
X152485137Y-43088264D01*
X152426580Y-43026348D01*
X152426580Y-42571751D01*
X152342561Y-42571751D01*
X152342561Y-43043201D01*
X152348178Y-43060115D01*
X152323021Y-43088264D01*
X152254633Y-43088264D01*
X152254633Y-43169658D01*
X152339996Y-43169658D01*
X152358660Y-43166547D01*
X152369427Y-43158483D01*
X152405819Y-43123374D01*
G37*
G36*
X151846259Y-42313831D02*
G01*
X151762240Y-42313831D01*
X151762240Y-42399804D01*
X151846259Y-42399804D01*
X151846259Y-42313831D01*
G37*
G36*
X151846259Y-42571751D02*
G01*
X151762240Y-42571751D01*
X151762240Y-43169658D01*
X151846259Y-43169658D01*
X151846259Y-42571751D01*
G37*
G36*
X151197550Y-42800362D02*
G01*
X151197550Y-43169658D01*
X151281570Y-43169658D01*
X151281570Y-42701078D01*
X151284415Y-42684175D01*
X151292744Y-42670303D01*
X151307789Y-42660842D01*
X151324801Y-42657725D01*
X151349958Y-42657725D01*
X151349958Y-42571751D01*
X151281448Y-42571751D01*
X151260295Y-42577388D01*
X151229057Y-42599167D01*
X151204811Y-42628635D01*
X151197550Y-42657541D01*
X151197550Y-42684286D01*
X151100647Y-42585795D01*
X151085766Y-42575035D01*
X151071154Y-42571751D01*
X150968695Y-42571751D01*
X150952034Y-42574973D01*
X150939141Y-42584391D01*
X150850725Y-42670059D01*
X150841212Y-42684057D01*
X150838025Y-42700894D01*
X150838025Y-42743026D01*
X150922044Y-42743026D01*
X150922044Y-42717869D01*
X150985303Y-42657725D01*
X151052775Y-42657725D01*
X151197550Y-42800362D01*
G37*
G36*
X150484195Y-42575276D02*
G01*
X150500298Y-42587260D01*
X150585661Y-42675921D01*
X150596459Y-42690605D01*
X150599644Y-42704009D01*
X150599644Y-43044483D01*
X150596749Y-43061265D01*
X150588469Y-43074036D01*
X150501458Y-43158483D01*
X150488981Y-43166817D01*
X150473431Y-43169658D01*
X150087711Y-43169658D01*
X150087711Y-43091500D01*
X150455846Y-43091500D01*
X150515624Y-43027691D01*
X150515624Y-42915645D01*
X150091618Y-42915645D01*
X150091618Y-42719762D01*
X150173684Y-42719762D01*
X150173684Y-42829672D01*
X150514220Y-42829672D01*
X150514220Y-42721167D01*
X150453037Y-42657725D01*
X150233463Y-42657725D01*
X150173684Y-42719762D01*
X150091618Y-42719762D01*
X150091618Y-42702299D01*
X150094657Y-42687871D01*
X150104258Y-42674272D01*
X150186751Y-42587199D01*
X150202711Y-42575165D01*
X150216182Y-42571751D01*
X150469523Y-42571751D01*
X150484195Y-42575276D01*
G37*
G36*
X149427278Y-42718724D02*
G01*
X149488766Y-42657725D01*
X149703822Y-42657725D01*
X149744366Y-42699307D01*
X149352906Y-43007786D01*
X149341181Y-43021908D01*
X149337397Y-43038499D01*
X149340634Y-43056478D01*
X149350036Y-43070556D01*
X149438391Y-43157140D01*
X149452187Y-43166572D01*
X149467883Y-43169658D01*
X149720308Y-43169658D01*
X149735985Y-43166544D01*
X149749740Y-43157018D01*
X149836751Y-43072327D01*
X149846165Y-43058271D01*
X149849330Y-43041308D01*
X149849330Y-43001863D01*
X149765310Y-43001863D01*
X149765310Y-43022684D01*
X149703822Y-43083684D01*
X149485957Y-43083684D01*
X149444070Y-43042102D01*
X149833271Y-42735027D01*
X149843118Y-42723031D01*
X149848658Y-42704314D01*
X149847327Y-42687430D01*
X149837484Y-42672257D01*
X149753464Y-42584330D01*
X149739526Y-42574914D01*
X149722690Y-42571751D01*
X149472096Y-42571751D01*
X149456424Y-42574878D01*
X149442665Y-42584452D01*
X149355898Y-42670425D01*
X149346368Y-42684281D01*
X149343258Y-42699979D01*
X149343258Y-42745102D01*
X149427278Y-42745102D01*
X149427278Y-42718724D01*
G37*
G36*
X148258820Y-42399804D02*
G01*
X148258820Y-42313831D01*
X147758611Y-42313831D01*
X147758611Y-42444439D01*
X147761736Y-42460122D01*
X147771311Y-42473932D01*
X147957913Y-42660778D01*
X147943930Y-42669204D01*
X147773204Y-42840235D01*
X147763676Y-42853981D01*
X147760565Y-42869605D01*
X147760565Y-42963578D01*
X147763677Y-42979265D01*
X147773204Y-42993070D01*
X147936908Y-43157079D01*
X147950658Y-43166557D01*
X147966339Y-43169658D01*
X148223832Y-43169658D01*
X148239489Y-43166516D01*
X148253203Y-43156896D01*
X148345587Y-43062740D01*
X148286786Y-43004122D01*
X148207041Y-43083684D01*
X147983131Y-43083684D01*
X147844584Y-42945504D01*
X147844584Y-42886885D01*
X147990092Y-42740340D01*
X148055854Y-42740340D01*
X148071494Y-42737244D01*
X148085286Y-42727761D01*
X148094772Y-42714037D01*
X148097864Y-42698513D01*
X148094756Y-42682941D01*
X148085225Y-42669204D01*
X147842630Y-42429113D01*
X147842630Y-42399804D01*
X148258820Y-42399804D01*
G37*
G36*
X147302365Y-42928285D02*
G01*
X147518276Y-43143096D01*
X147518276Y-43169658D01*
X147602295Y-43169658D01*
X147602295Y-43125022D01*
X147599385Y-43108319D01*
X147591060Y-43095652D01*
X147362632Y-42870704D01*
X147591060Y-42644413D01*
X147599331Y-42631566D01*
X147602295Y-42613700D01*
X147602295Y-42571751D01*
X147518276Y-42571751D01*
X147518276Y-42599717D01*
X147302365Y-42810621D01*
X147086454Y-42599717D01*
X147086454Y-42571751D01*
X147002435Y-42571751D01*
X147002435Y-42613700D01*
X147005595Y-42630484D01*
X147015013Y-42644413D01*
X147243503Y-42869300D01*
X147015013Y-43095652D01*
X147005533Y-43109393D01*
X147002435Y-43125022D01*
X147002435Y-43169658D01*
X147086454Y-43169658D01*
X147086454Y-43143096D01*
X147302365Y-42928285D01*
G37*
G36*
X146570926Y-42406853D02*
G01*
X146583558Y-42416290D01*
X146835495Y-42669326D01*
X146845049Y-42682862D01*
X146848073Y-42697231D01*
X146848073Y-43169658D01*
X146764054Y-43169658D01*
X146764054Y-42911737D01*
X146340048Y-42911737D01*
X146340048Y-43169658D01*
X146256029Y-43169658D01*
X146256029Y-42714694D01*
X146340048Y-42714694D01*
X146340048Y-42825764D01*
X146762650Y-42825764D01*
X146762650Y-42713290D01*
X146553456Y-42503668D01*
X146340048Y-42714694D01*
X146256029Y-42714694D01*
X146256029Y-42700040D01*
X146258923Y-42683384D01*
X146267203Y-42670730D01*
X146523353Y-42416290D01*
X146537485Y-42406936D01*
X146555532Y-42403712D01*
X146570926Y-42406853D01*
G37*
G36*
X145820612Y-42406853D02*
G01*
X145833244Y-42416290D01*
X146085181Y-42669326D01*
X146094735Y-42682862D01*
X146097759Y-42697231D01*
X146097759Y-43169658D01*
X146013740Y-43169658D01*
X146013740Y-42911737D01*
X145589734Y-42911737D01*
X145589734Y-43169658D01*
X145505715Y-43169658D01*
X145505715Y-42714694D01*
X145589734Y-42714694D01*
X145589734Y-42825764D01*
X146012336Y-42825764D01*
X146012336Y-42713290D01*
X145803142Y-42503668D01*
X145589734Y-42714694D01*
X145505715Y-42714694D01*
X145505715Y-42700040D01*
X145508609Y-42683384D01*
X145516889Y-42670730D01*
X145773039Y-42416290D01*
X145787171Y-42406936D01*
X145805218Y-42403712D01*
X145820612Y-42406853D01*
G37*
G36*
X145070298Y-42406853D02*
G01*
X145082930Y-42416290D01*
X145334867Y-42669326D01*
X145344421Y-42682862D01*
X145347445Y-42697231D01*
X145347445Y-43169658D01*
X145263426Y-43169658D01*
X145263426Y-42911737D01*
X144839420Y-42911737D01*
X144839420Y-43169658D01*
X144755401Y-43169658D01*
X144755401Y-42714694D01*
X144839420Y-42714694D01*
X144839420Y-42825764D01*
X145262021Y-42825764D01*
X145262021Y-42713290D01*
X145052827Y-42503668D01*
X144839420Y-42714694D01*
X144755401Y-42714694D01*
X144755401Y-42700040D01*
X144758295Y-42683384D01*
X144766575Y-42670730D01*
X145022725Y-42416290D01*
X145036857Y-42406936D01*
X145054904Y-42403712D01*
X145070298Y-42406853D01*
G37*
G36*
X155101528Y-44165106D02*
G01*
X155015554Y-44165106D01*
X155015554Y-44763684D01*
X155101528Y-44763684D01*
X155101528Y-44849658D01*
X154722219Y-44849658D01*
X154706542Y-44846544D01*
X154692787Y-44837018D01*
X154522062Y-44660797D01*
X154512648Y-44646741D01*
X154509882Y-44631915D01*
X154610416Y-44631915D01*
X154740842Y-44763684D01*
X154931535Y-44763684D01*
X154931535Y-44505764D01*
X154739438Y-44505764D01*
X154610416Y-44631915D01*
X154509882Y-44631915D01*
X154509483Y-44629778D01*
X154512513Y-44615230D01*
X154522062Y-44601568D01*
X154663722Y-44462044D01*
X154522062Y-44327650D01*
X154512699Y-44313601D01*
X154509483Y-44295776D01*
X154509584Y-44295226D01*
X154610416Y-44295226D01*
X154740842Y-44419790D01*
X154931535Y-44419790D01*
X154931535Y-44165106D01*
X154738033Y-44165106D01*
X154610416Y-44295226D01*
X154509584Y-44295226D01*
X154512319Y-44280405D01*
X154520657Y-44268054D01*
X154688574Y-44094825D01*
X154704425Y-44086342D01*
X154719410Y-44083712D01*
X155101528Y-44083712D01*
X155101528Y-44165106D01*
G37*
G36*
X153906448Y-44803374D02*
G01*
X153939970Y-44837079D01*
X153953720Y-44846557D01*
X153969401Y-44849658D01*
X154224146Y-44849658D01*
X154239643Y-44846820D01*
X154252112Y-44838483D01*
X154334727Y-44756845D01*
X154344209Y-44742994D01*
X154347306Y-44727292D01*
X154347306Y-44251751D01*
X154263286Y-44251751D01*
X154263286Y-44710561D01*
X154206133Y-44768264D01*
X153985765Y-44768264D01*
X153927208Y-44706348D01*
X153927208Y-44251751D01*
X153843189Y-44251751D01*
X153843189Y-44723201D01*
X153848806Y-44740115D01*
X153823649Y-44768264D01*
X153755261Y-44768264D01*
X153755261Y-44849658D01*
X153840624Y-44849658D01*
X153859288Y-44846547D01*
X153870055Y-44838483D01*
X153906448Y-44803374D01*
G37*
G36*
X153262868Y-44744206D02*
G01*
X153244488Y-44763684D01*
X153175245Y-44763684D01*
X153175245Y-44849658D01*
X153261036Y-44849658D01*
X153276785Y-44846569D01*
X153290589Y-44837140D01*
X153334248Y-44793726D01*
X153343776Y-44779980D01*
X153346887Y-44764356D01*
X153346887Y-44337725D01*
X153518834Y-44337725D01*
X153518834Y-44251751D01*
X153346887Y-44251751D01*
X153346887Y-43993831D01*
X153262868Y-43993831D01*
X153262868Y-44251751D01*
X153088967Y-44251751D01*
X153088967Y-44337725D01*
X153262868Y-44337725D01*
X153262868Y-44744206D01*
G37*
G36*
X152512554Y-44744206D02*
G01*
X152494174Y-44763684D01*
X152424931Y-44763684D01*
X152424931Y-44849658D01*
X152510722Y-44849658D01*
X152526471Y-44846569D01*
X152540275Y-44837140D01*
X152583934Y-44793726D01*
X152593462Y-44779980D01*
X152596573Y-44764356D01*
X152596573Y-44337725D01*
X152768520Y-44337725D01*
X152768520Y-44251751D01*
X152596573Y-44251751D01*
X152596573Y-43993831D01*
X152512554Y-43993831D01*
X152512554Y-44251751D01*
X152338653Y-44251751D01*
X152338653Y-44337725D01*
X152512554Y-44337725D01*
X152512554Y-44744206D01*
G37*
G36*
X151989295Y-44254390D02*
G01*
X152000682Y-44261582D01*
X152086289Y-44349876D01*
X152097089Y-44364500D01*
X152100272Y-44377841D01*
X152100272Y-44723872D01*
X152097002Y-44741685D01*
X152087693Y-44754708D01*
X152000682Y-44835980D01*
X151987332Y-44843326D01*
X151972655Y-44845750D01*
X151711803Y-44845750D01*
X151692941Y-44842969D01*
X151682372Y-44835980D01*
X151600978Y-44753304D01*
X151591453Y-44739549D01*
X151588339Y-44723872D01*
X151588339Y-44394755D01*
X151672358Y-44394755D01*
X151672358Y-44705554D01*
X151728534Y-44764356D01*
X151955924Y-44764356D01*
X152016252Y-44705554D01*
X152016252Y-44394755D01*
X151955924Y-44333145D01*
X151727130Y-44333145D01*
X151672358Y-44394755D01*
X151588339Y-44394755D01*
X151588339Y-44380650D01*
X151591124Y-44366356D01*
X151599574Y-44354028D01*
X151678159Y-44265734D01*
X151693180Y-44255103D01*
X151708995Y-44251751D01*
X151972655Y-44251751D01*
X151989295Y-44254390D01*
G37*
G36*
X151197123Y-44298096D02*
G01*
X151163600Y-44264391D01*
X151149854Y-44254862D01*
X151134230Y-44251751D01*
X150961001Y-44251751D01*
X150945514Y-44254616D01*
X150933035Y-44263047D01*
X150850664Y-44344869D01*
X150841135Y-44358724D01*
X150838025Y-44374422D01*
X150838025Y-44849658D01*
X150916182Y-44849658D01*
X150916182Y-44391031D01*
X150976571Y-44333145D01*
X151117072Y-44333145D01*
X151176057Y-44395244D01*
X151176057Y-44849658D01*
X151260076Y-44849658D01*
X151260076Y-44378330D01*
X151254459Y-44361355D01*
X151279616Y-44333145D01*
X151348004Y-44333145D01*
X151348004Y-44251751D01*
X151260015Y-44251751D01*
X151244770Y-44254649D01*
X151233454Y-44262986D01*
X151197123Y-44298096D01*
G37*
G36*
X150177592Y-44398724D02*
G01*
X150239080Y-44337725D01*
X150454136Y-44337725D01*
X150494680Y-44379307D01*
X150103220Y-44687786D01*
X150091495Y-44701908D01*
X150087711Y-44718499D01*
X150090948Y-44736478D01*
X150100350Y-44750556D01*
X150188705Y-44837140D01*
X150202501Y-44846572D01*
X150218197Y-44849658D01*
X150470622Y-44849658D01*
X150486299Y-44846544D01*
X150500054Y-44837018D01*
X150587065Y-44752327D01*
X150596479Y-44738271D01*
X150599644Y-44721308D01*
X150599644Y-44681863D01*
X150515624Y-44681863D01*
X150515624Y-44702684D01*
X150454136Y-44763684D01*
X150236271Y-44763684D01*
X150194384Y-44722102D01*
X150583585Y-44415027D01*
X150593432Y-44403031D01*
X150598972Y-44384314D01*
X150597641Y-44367430D01*
X150587798Y-44352257D01*
X150503778Y-44264330D01*
X150489840Y-44254914D01*
X150473004Y-44251751D01*
X150222411Y-44251751D01*
X150206738Y-44254878D01*
X150192979Y-44264452D01*
X150106212Y-44350425D01*
X150096683Y-44364281D01*
X150093572Y-44379979D01*
X150093572Y-44425102D01*
X150177592Y-44425102D01*
X150177592Y-44398724D01*
G37*
G36*
X148671102Y-44251751D02*
G01*
X148890005Y-44251751D01*
X148904428Y-44254802D01*
X148918032Y-44264452D01*
X149086437Y-44435055D01*
X149095913Y-44448923D01*
X149099016Y-44464731D01*
X149099016Y-44638143D01*
X149095913Y-44653951D01*
X149086437Y-44667819D01*
X148913941Y-44838422D01*
X148901173Y-44846751D01*
X148884448Y-44849658D01*
X148587083Y-44849658D01*
X148587083Y-44768264D01*
X148671102Y-44768264D01*
X148866802Y-44768264D01*
X149014996Y-44620863D01*
X149014996Y-44480546D01*
X148871015Y-44333145D01*
X148671102Y-44333145D01*
X148671102Y-44768264D01*
X148587083Y-44768264D01*
X148587083Y-43993831D01*
X148671102Y-43993831D01*
X148671102Y-44251751D01*
G37*
G36*
X148237725Y-44254390D02*
G01*
X148249112Y-44261582D01*
X148334719Y-44349876D01*
X148345519Y-44364500D01*
X148348702Y-44377841D01*
X148348702Y-44723872D01*
X148345432Y-44741685D01*
X148336123Y-44754708D01*
X148249112Y-44835980D01*
X148235762Y-44843326D01*
X148221085Y-44845750D01*
X147960233Y-44845750D01*
X147941371Y-44842969D01*
X147930802Y-44835980D01*
X147849408Y-44753304D01*
X147839882Y-44739549D01*
X147836769Y-44723872D01*
X147836769Y-44394755D01*
X147920788Y-44394755D01*
X147920788Y-44705554D01*
X147976964Y-44764356D01*
X148204354Y-44764356D01*
X148264682Y-44705554D01*
X148264682Y-44394755D01*
X148204354Y-44333145D01*
X147975560Y-44333145D01*
X147920788Y-44394755D01*
X147836769Y-44394755D01*
X147836769Y-44380650D01*
X147839554Y-44366356D01*
X147848004Y-44354028D01*
X147926589Y-44265734D01*
X147941610Y-44255103D01*
X147957424Y-44251751D01*
X148221085Y-44251751D01*
X148237725Y-44254390D01*
G37*
G36*
X146426022Y-44398724D02*
G01*
X146487510Y-44337725D01*
X146702566Y-44337725D01*
X146743110Y-44379307D01*
X146351650Y-44687786D01*
X146339925Y-44701908D01*
X146336140Y-44718499D01*
X146339378Y-44736478D01*
X146348780Y-44750556D01*
X146437135Y-44837140D01*
X146450931Y-44846572D01*
X146466627Y-44849658D01*
X146719052Y-44849658D01*
X146734729Y-44846544D01*
X146748483Y-44837018D01*
X146835495Y-44752327D01*
X146844909Y-44738271D01*
X146848073Y-44721308D01*
X146848073Y-44681863D01*
X146764054Y-44681863D01*
X146764054Y-44702684D01*
X146702566Y-44763684D01*
X146484701Y-44763684D01*
X146442814Y-44722102D01*
X146832015Y-44415027D01*
X146841862Y-44403031D01*
X146847402Y-44384314D01*
X146846071Y-44367430D01*
X146836228Y-44352257D01*
X146752208Y-44264330D01*
X146738270Y-44254914D01*
X146721434Y-44251751D01*
X146470840Y-44251751D01*
X146455168Y-44254878D01*
X146441409Y-44264452D01*
X146354642Y-44350425D01*
X146345112Y-44364281D01*
X146342002Y-44379979D01*
X146342002Y-44425102D01*
X146426022Y-44425102D01*
X146426022Y-44398724D01*
G37*
G36*
X145759727Y-44744206D02*
G01*
X145741348Y-44763684D01*
X145672105Y-44763684D01*
X145672105Y-44849658D01*
X145757896Y-44849658D01*
X145773645Y-44846569D01*
X145787449Y-44837140D01*
X145831107Y-44793726D01*
X145840636Y-44779980D01*
X145843747Y-44764356D01*
X145843747Y-44337725D01*
X146015694Y-44337725D01*
X146015694Y-44251751D01*
X145843747Y-44251751D01*
X145843747Y-43993831D01*
X145759727Y-43993831D01*
X145759727Y-44251751D01*
X145585826Y-44251751D01*
X145585826Y-44337725D01*
X145759727Y-44337725D01*
X145759727Y-44744206D01*
G37*
G36*
X144902679Y-44803374D02*
G01*
X144936202Y-44837079D01*
X144949951Y-44846557D01*
X144965633Y-44849658D01*
X145220378Y-44849658D01*
X145235875Y-44846820D01*
X145248344Y-44838483D01*
X145330959Y-44756845D01*
X145340441Y-44742994D01*
X145343538Y-44727292D01*
X145343538Y-44251751D01*
X145259518Y-44251751D01*
X145259518Y-44710561D01*
X145202365Y-44768264D01*
X144981997Y-44768264D01*
X144923440Y-44706348D01*
X144923440Y-44251751D01*
X144839420Y-44251751D01*
X144839420Y-44723201D01*
X144845038Y-44740115D01*
X144819881Y-44768264D01*
X144751493Y-44768264D01*
X144751493Y-44849658D01*
X144836856Y-44849658D01*
X144855520Y-44846547D01*
X144866287Y-44838483D01*
X144902679Y-44803374D01*
G37*
G36*
X144284989Y-44079804D02*
G01*
X144341165Y-44137140D01*
X144341165Y-44251751D01*
X144171172Y-44251751D01*
X144171172Y-44337725D01*
X144341165Y-44337725D01*
X144341165Y-44849658D01*
X144425184Y-44849658D01*
X144425184Y-44337725D01*
X144597131Y-44337725D01*
X144597131Y-44251751D01*
X144425184Y-44251751D01*
X144425184Y-44119249D01*
X144422273Y-44102419D01*
X144413949Y-44089635D01*
X144333532Y-44006531D01*
X144319416Y-43997020D01*
X144302452Y-43993831D01*
X144085198Y-43993831D01*
X144085198Y-44079804D01*
X144284989Y-44079804D01*
G37*
G36*
X143534675Y-44079804D02*
G01*
X143590851Y-44137140D01*
X143590851Y-44251751D01*
X143420858Y-44251751D01*
X143420858Y-44337725D01*
X143590851Y-44337725D01*
X143590851Y-44849658D01*
X143674870Y-44849658D01*
X143674870Y-44337725D01*
X143846817Y-44337725D01*
X143846817Y-44251751D01*
X143674870Y-44251751D01*
X143674870Y-44119249D01*
X143671959Y-44102419D01*
X143663635Y-44089635D01*
X143583218Y-44006531D01*
X143569102Y-43997020D01*
X143552138Y-43993831D01*
X143334884Y-43993831D01*
X143334884Y-44079804D01*
X143534675Y-44079804D01*
G37*
G36*
X142155314Y-44262315D02*
G01*
X141980802Y-44096290D01*
X141965322Y-44086488D01*
X141952897Y-44083712D01*
X141937681Y-44087146D01*
X141924993Y-44097695D01*
X141915511Y-44111377D01*
X141912414Y-44126943D01*
X141915467Y-44141356D01*
X141925115Y-44154909D01*
X142088269Y-44312506D01*
X142088269Y-44619459D01*
X141923222Y-44781331D01*
X141913819Y-44793161D01*
X141910460Y-44810640D01*
X141913541Y-44824761D01*
X141923100Y-44837140D01*
X141936631Y-44846646D01*
X141951004Y-44849658D01*
X141966404Y-44846530D01*
X141979031Y-44837140D01*
X142153848Y-44662751D01*
X142163481Y-44649411D01*
X142166427Y-44636250D01*
X142166427Y-44295776D01*
X142163388Y-44275505D01*
X142155314Y-44262315D01*
G37*
G36*
X141151109Y-44803374D02*
G01*
X141184631Y-44837079D01*
X141198381Y-44846557D01*
X141214063Y-44849658D01*
X141468808Y-44849658D01*
X141484305Y-44846820D01*
X141496774Y-44838483D01*
X141579389Y-44756845D01*
X141588870Y-44742994D01*
X141591967Y-44727292D01*
X141591967Y-44251751D01*
X141507948Y-44251751D01*
X141507948Y-44710561D01*
X141450795Y-44768264D01*
X141230427Y-44768264D01*
X141171870Y-44706348D01*
X141171870Y-44251751D01*
X141087850Y-44251751D01*
X141087850Y-44723201D01*
X141093468Y-44740115D01*
X141068311Y-44768264D01*
X140999923Y-44768264D01*
X140999923Y-44849658D01*
X141085286Y-44849658D01*
X141103950Y-44846547D01*
X141114717Y-44838483D01*
X141151109Y-44803374D01*
G37*
G36*
X140845561Y-45107578D02*
G01*
X140761542Y-45107578D01*
X140761542Y-44849658D01*
X140542700Y-44849658D01*
X140528215Y-44846629D01*
X140514612Y-44837079D01*
X140346268Y-44666903D01*
X140336743Y-44653089D01*
X140333628Y-44637349D01*
X140333628Y-44465158D01*
X140417648Y-44465158D01*
X140417648Y-44620985D01*
X140561629Y-44768264D01*
X140761542Y-44768264D01*
X140761542Y-44322093D01*
X140565842Y-44322093D01*
X140417648Y-44465158D01*
X140333628Y-44465158D01*
X140333628Y-44448916D01*
X140336740Y-44433229D01*
X140346268Y-44419424D01*
X140518764Y-44253461D01*
X140537021Y-44247843D01*
X140845561Y-44247843D01*
X140845561Y-45107578D01*
G37*
G36*
X139667334Y-44251751D02*
G01*
X139886236Y-44251751D01*
X139900659Y-44254802D01*
X139914263Y-44264452D01*
X140082669Y-44435055D01*
X140092144Y-44448923D01*
X140095247Y-44464731D01*
X140095247Y-44638143D01*
X140092144Y-44653951D01*
X140082669Y-44667819D01*
X139910172Y-44838422D01*
X139897404Y-44846751D01*
X139880680Y-44849658D01*
X139583314Y-44849658D01*
X139583314Y-44768264D01*
X139667334Y-44768264D01*
X139863033Y-44768264D01*
X140011228Y-44620863D01*
X140011228Y-44480546D01*
X139867247Y-44333145D01*
X139667334Y-44333145D01*
X139667334Y-44768264D01*
X139583314Y-44768264D01*
X139583314Y-43993831D01*
X139667334Y-43993831D01*
X139667334Y-44251751D01*
G37*
G36*
X139262318Y-44333145D02*
G01*
X138978080Y-44333145D01*
X138920928Y-44392435D01*
X138920928Y-44509672D01*
X139220430Y-44509672D01*
X139237134Y-44512582D01*
X139249801Y-44520907D01*
X139332355Y-44606575D01*
X139341836Y-44620426D01*
X139344933Y-44636128D01*
X139344933Y-44720392D01*
X139341836Y-44736094D01*
X139332355Y-44749945D01*
X139251083Y-44837079D01*
X139237333Y-44846557D01*
X139221652Y-44849658D01*
X138750935Y-44849658D01*
X138750935Y-44768264D01*
X138836908Y-44768264D01*
X138920928Y-44768264D01*
X139202418Y-44768264D01*
X139260914Y-44705005D01*
X139260914Y-44652920D01*
X139201013Y-44591065D01*
X138920928Y-44591065D01*
X138920928Y-44768264D01*
X138836908Y-44768264D01*
X138836908Y-44376620D01*
X138839930Y-44362241D01*
X138849487Y-44348654D01*
X138931735Y-44264391D01*
X138945473Y-44254859D01*
X138961045Y-44251751D01*
X139262318Y-44251751D01*
X139262318Y-44333145D01*
G37*
G36*
X138256587Y-44744206D02*
G01*
X138238208Y-44763684D01*
X138168965Y-44763684D01*
X138168965Y-44849658D01*
X138254755Y-44849658D01*
X138270504Y-44846569D01*
X138284309Y-44837140D01*
X138327967Y-44793726D01*
X138337496Y-44779980D01*
X138340607Y-44764356D01*
X138340607Y-44337725D01*
X138512554Y-44337725D01*
X138512554Y-44251751D01*
X138340607Y-44251751D01*
X138340607Y-43993831D01*
X138256587Y-43993831D01*
X138256587Y-44251751D01*
X138082686Y-44251751D01*
X138082686Y-44337725D01*
X138256587Y-44337725D01*
X138256587Y-44744206D01*
G37*
G36*
X137728857Y-44255276D02*
G01*
X137744959Y-44267260D01*
X137830322Y-44355921D01*
X137841121Y-44370605D01*
X137844305Y-44384009D01*
X137844305Y-44724483D01*
X137841410Y-44741265D01*
X137833131Y-44754036D01*
X137746120Y-44838483D01*
X137733642Y-44846817D01*
X137718093Y-44849658D01*
X137332372Y-44849658D01*
X137332372Y-44771500D01*
X137700507Y-44771500D01*
X137760286Y-44707691D01*
X137760286Y-44595645D01*
X137336280Y-44595645D01*
X137336280Y-44399762D01*
X137418346Y-44399762D01*
X137418346Y-44509672D01*
X137758881Y-44509672D01*
X137758881Y-44401167D01*
X137697698Y-44337725D01*
X137478124Y-44337725D01*
X137418346Y-44399762D01*
X137336280Y-44399762D01*
X137336280Y-44382299D01*
X137339318Y-44367871D01*
X137348920Y-44354272D01*
X137431413Y-44267199D01*
X137447372Y-44255165D01*
X137460844Y-44251751D01*
X137714185Y-44251751D01*
X137728857Y-44255276D01*
G37*
G36*
X136343677Y-44845078D02*
G01*
X136046311Y-44845078D01*
X136028483Y-44842406D01*
X136016880Y-44835308D01*
X135844384Y-44665560D01*
X135834858Y-44651805D01*
X135831744Y-44636128D01*
X135831744Y-44479019D01*
X135915764Y-44479019D01*
X135915764Y-44617810D01*
X136063958Y-44763684D01*
X136259658Y-44763684D01*
X136259658Y-44333145D01*
X136058340Y-44333145D01*
X135915764Y-44479019D01*
X135831744Y-44479019D01*
X135831744Y-44463571D01*
X135834858Y-44447894D01*
X135844384Y-44434139D01*
X136011324Y-44264391D01*
X136025171Y-44254858D01*
X136040816Y-44251751D01*
X136259658Y-44251751D01*
X136259658Y-43993831D01*
X136343677Y-43993831D01*
X136343677Y-44845078D01*
G37*
G36*
X135477915Y-44255276D02*
G01*
X135494017Y-44267260D01*
X135579380Y-44355921D01*
X135590179Y-44370605D01*
X135593363Y-44384009D01*
X135593363Y-44724483D01*
X135590468Y-44741265D01*
X135582189Y-44754036D01*
X135495177Y-44838483D01*
X135482700Y-44846817D01*
X135467151Y-44849658D01*
X135081430Y-44849658D01*
X135081430Y-44771500D01*
X135449565Y-44771500D01*
X135509344Y-44707691D01*
X135509344Y-44595645D01*
X135085338Y-44595645D01*
X135085338Y-44399762D01*
X135167404Y-44399762D01*
X135167404Y-44509672D01*
X135507939Y-44509672D01*
X135507939Y-44401167D01*
X135446756Y-44337725D01*
X135227182Y-44337725D01*
X135167404Y-44399762D01*
X135085338Y-44399762D01*
X135085338Y-44382299D01*
X135088376Y-44367871D01*
X135097978Y-44354272D01*
X135180471Y-44267199D01*
X135196430Y-44255165D01*
X135209902Y-44251751D01*
X135463243Y-44251751D01*
X135477915Y-44255276D01*
G37*
G36*
X134530907Y-44079804D02*
G01*
X134587083Y-44137140D01*
X134587083Y-44251751D01*
X134417090Y-44251751D01*
X134417090Y-44337725D01*
X134587083Y-44337725D01*
X134587083Y-44849658D01*
X134671102Y-44849658D01*
X134671102Y-44337725D01*
X134843049Y-44337725D01*
X134843049Y-44251751D01*
X134671102Y-44251751D01*
X134671102Y-44119249D01*
X134668191Y-44102419D01*
X134659867Y-44089635D01*
X134579450Y-44006531D01*
X134565334Y-43997020D01*
X134548370Y-43993831D01*
X134331116Y-43993831D01*
X134331116Y-44079804D01*
X134530907Y-44079804D01*
G37*
G36*
X133981758Y-44254390D02*
G01*
X133993145Y-44261582D01*
X134078752Y-44349876D01*
X134089553Y-44364500D01*
X134092735Y-44377841D01*
X134092735Y-44723872D01*
X134089465Y-44741685D01*
X134080157Y-44754708D01*
X133993145Y-44835980D01*
X133979795Y-44843326D01*
X133965118Y-44845750D01*
X133704267Y-44845750D01*
X133685405Y-44842969D01*
X133674836Y-44835980D01*
X133593442Y-44753304D01*
X133583916Y-44739549D01*
X133580802Y-44723872D01*
X133580802Y-44394755D01*
X133664822Y-44394755D01*
X133664822Y-44705554D01*
X133720997Y-44764356D01*
X133948387Y-44764356D01*
X134008715Y-44705554D01*
X134008715Y-44394755D01*
X133948387Y-44333145D01*
X133719593Y-44333145D01*
X133664822Y-44394755D01*
X133580802Y-44394755D01*
X133580802Y-44380650D01*
X133583588Y-44366356D01*
X133592037Y-44354028D01*
X133670622Y-44265734D01*
X133685643Y-44255103D01*
X133701458Y-44251751D01*
X133965118Y-44251751D01*
X133981758Y-44254390D01*
G37*
G36*
X133190013Y-44480362D02*
G01*
X133190013Y-44849658D01*
X133274033Y-44849658D01*
X133274033Y-44381078D01*
X133276878Y-44364175D01*
X133285207Y-44350303D01*
X133300252Y-44340842D01*
X133317264Y-44337725D01*
X133342421Y-44337725D01*
X133342421Y-44251751D01*
X133273911Y-44251751D01*
X133252758Y-44257388D01*
X133221521Y-44279167D01*
X133197274Y-44308635D01*
X133190013Y-44337541D01*
X133190013Y-44364286D01*
X133093110Y-44265795D01*
X133078229Y-44255035D01*
X133063618Y-44251751D01*
X132961158Y-44251751D01*
X132944498Y-44254973D01*
X132931605Y-44264391D01*
X132843189Y-44350059D01*
X132833676Y-44364057D01*
X132830488Y-44380894D01*
X132830488Y-44423026D01*
X132914508Y-44423026D01*
X132914508Y-44397869D01*
X132977766Y-44337725D01*
X133045239Y-44337725D01*
X133190013Y-44480362D01*
G37*
G36*
X132476659Y-44255276D02*
G01*
X132492761Y-44267260D01*
X132578124Y-44355921D01*
X132588923Y-44370605D01*
X132592107Y-44384009D01*
X132592107Y-44724483D01*
X132589212Y-44741265D01*
X132580933Y-44754036D01*
X132493921Y-44838483D01*
X132481444Y-44846817D01*
X132465894Y-44849658D01*
X132080174Y-44849658D01*
X132080174Y-44771500D01*
X132448309Y-44771500D01*
X132508087Y-44707691D01*
X132508087Y-44595645D01*
X132084082Y-44595645D01*
X132084082Y-44399762D01*
X132166147Y-44399762D01*
X132166147Y-44509672D01*
X132506683Y-44509672D01*
X132506683Y-44401167D01*
X132445500Y-44337725D01*
X132225926Y-44337725D01*
X132166147Y-44399762D01*
X132084082Y-44399762D01*
X132084082Y-44382299D01*
X132087120Y-44367871D01*
X132096721Y-44354272D01*
X132179214Y-44267199D01*
X132195174Y-44255165D01*
X132208646Y-44251751D01*
X132461987Y-44251751D01*
X132476659Y-44255276D01*
G37*
G36*
X130939071Y-44480362D02*
G01*
X130939071Y-44849658D01*
X131023091Y-44849658D01*
X131023091Y-44381078D01*
X131025936Y-44364175D01*
X131034265Y-44350303D01*
X131049310Y-44340842D01*
X131066322Y-44337725D01*
X131091479Y-44337725D01*
X131091479Y-44251751D01*
X131022969Y-44251751D01*
X131001816Y-44257388D01*
X130970579Y-44279167D01*
X130946332Y-44308635D01*
X130939071Y-44337541D01*
X130939071Y-44364286D01*
X130842168Y-44265795D01*
X130827287Y-44255035D01*
X130812676Y-44251751D01*
X130710216Y-44251751D01*
X130693556Y-44254973D01*
X130680662Y-44264391D01*
X130592247Y-44350059D01*
X130582734Y-44364057D01*
X130579546Y-44380894D01*
X130579546Y-44423026D01*
X130663565Y-44423026D01*
X130663565Y-44397869D01*
X130726824Y-44337725D01*
X130794296Y-44337725D01*
X130939071Y-44480362D01*
G37*
G36*
X130225717Y-44255276D02*
G01*
X130241819Y-44267260D01*
X130327182Y-44355921D01*
X130337981Y-44370605D01*
X130341165Y-44384009D01*
X130341165Y-44724483D01*
X130338270Y-44741265D01*
X130329991Y-44754036D01*
X130242979Y-44838483D01*
X130230502Y-44846817D01*
X130214952Y-44849658D01*
X129829232Y-44849658D01*
X129829232Y-44771500D01*
X130197367Y-44771500D01*
X130257145Y-44707691D01*
X130257145Y-44595645D01*
X129833140Y-44595645D01*
X129833140Y-44399762D01*
X129915205Y-44399762D01*
X129915205Y-44509672D01*
X130255741Y-44509672D01*
X130255741Y-44401167D01*
X130194558Y-44337725D01*
X129974984Y-44337725D01*
X129915205Y-44399762D01*
X129833140Y-44399762D01*
X129833140Y-44382299D01*
X129836178Y-44367871D01*
X129845779Y-44354272D01*
X129928272Y-44267199D01*
X129944232Y-44255165D01*
X129957704Y-44251751D01*
X130211045Y-44251751D01*
X130225717Y-44255276D01*
G37*
G36*
X129252819Y-44744084D02*
G01*
X129234806Y-44763684D01*
X129166845Y-44763684D01*
X129166845Y-44849658D01*
X129251842Y-44849658D01*
X129267408Y-44846561D01*
X129281090Y-44837079D01*
X129324321Y-44793604D01*
X129333752Y-44779808D01*
X129336838Y-44764112D01*
X129336838Y-43993831D01*
X129252819Y-43993831D01*
X129252819Y-44744084D01*
G37*
G36*
X128725089Y-44255276D02*
G01*
X128741191Y-44267260D01*
X128826554Y-44355921D01*
X128837353Y-44370605D01*
X128840537Y-44384009D01*
X128840537Y-44724483D01*
X128837642Y-44741265D01*
X128829363Y-44754036D01*
X128742351Y-44838483D01*
X128729874Y-44846817D01*
X128714324Y-44849658D01*
X128328604Y-44849658D01*
X128328604Y-44771500D01*
X128696739Y-44771500D01*
X128756517Y-44707691D01*
X128756517Y-44595645D01*
X128332512Y-44595645D01*
X128332512Y-44399762D01*
X128414577Y-44399762D01*
X128414577Y-44509672D01*
X128755113Y-44509672D01*
X128755113Y-44401167D01*
X128693930Y-44337725D01*
X128474356Y-44337725D01*
X128414577Y-44399762D01*
X128332512Y-44399762D01*
X128332512Y-44382299D01*
X128335550Y-44367871D01*
X128345151Y-44354272D01*
X128427644Y-44267199D01*
X128443604Y-44255165D01*
X128457076Y-44251751D01*
X128710416Y-44251751D01*
X128725089Y-44255276D01*
G37*
G36*
X128007608Y-44333145D02*
G01*
X127723370Y-44333145D01*
X127666217Y-44392435D01*
X127666217Y-44509672D01*
X127965720Y-44509672D01*
X127982424Y-44512582D01*
X127995090Y-44520907D01*
X128077644Y-44606575D01*
X128087126Y-44620426D01*
X128090223Y-44636128D01*
X128090223Y-44720392D01*
X128087126Y-44736094D01*
X128077644Y-44749945D01*
X127996372Y-44837079D01*
X127982623Y-44846557D01*
X127966941Y-44849658D01*
X127496224Y-44849658D01*
X127496224Y-44768264D01*
X127582198Y-44768264D01*
X127666217Y-44768264D01*
X127947707Y-44768264D01*
X128006203Y-44705005D01*
X128006203Y-44652920D01*
X127946303Y-44591065D01*
X127666217Y-44591065D01*
X127666217Y-44768264D01*
X127582198Y-44768264D01*
X127582198Y-44376620D01*
X127585220Y-44362241D01*
X127594776Y-44348654D01*
X127677025Y-44264391D01*
X127690762Y-44254859D01*
X127706334Y-44251751D01*
X128007608Y-44251751D01*
X128007608Y-44333145D01*
G37*
G36*
X126917857Y-44398724D02*
G01*
X126979345Y-44337725D01*
X127194401Y-44337725D01*
X127234945Y-44379307D01*
X126843485Y-44687786D01*
X126831760Y-44701908D01*
X126827976Y-44718499D01*
X126831213Y-44736478D01*
X126840615Y-44750556D01*
X126928970Y-44837140D01*
X126942766Y-44846572D01*
X126958463Y-44849658D01*
X127210887Y-44849658D01*
X127226564Y-44846544D01*
X127240319Y-44837018D01*
X127327330Y-44752327D01*
X127336744Y-44738271D01*
X127339909Y-44721308D01*
X127339909Y-44681863D01*
X127255889Y-44681863D01*
X127255889Y-44702684D01*
X127194401Y-44763684D01*
X126976536Y-44763684D01*
X126934649Y-44722102D01*
X127323850Y-44415027D01*
X127333697Y-44403031D01*
X127339237Y-44384314D01*
X127337906Y-44367430D01*
X127328063Y-44352257D01*
X127244043Y-44264330D01*
X127230105Y-44254914D01*
X127213269Y-44251751D01*
X126962676Y-44251751D01*
X126947004Y-44254878D01*
X126933244Y-44264452D01*
X126846477Y-44350425D01*
X126836948Y-44364281D01*
X126833838Y-44379979D01*
X126833838Y-44425102D01*
X126917857Y-44425102D01*
X126917857Y-44398724D01*
G37*
G36*
X126474147Y-44255276D02*
G01*
X126490249Y-44267260D01*
X126575612Y-44355921D01*
X126586410Y-44370605D01*
X126589595Y-44384009D01*
X126589595Y-44724483D01*
X126586700Y-44741265D01*
X126578421Y-44754036D01*
X126491409Y-44838483D01*
X126478932Y-44846817D01*
X126463382Y-44849658D01*
X126077662Y-44849658D01*
X126077662Y-44771500D01*
X126445797Y-44771500D01*
X126505575Y-44707691D01*
X126505575Y-44595645D01*
X126081570Y-44595645D01*
X126081570Y-44399762D01*
X126163635Y-44399762D01*
X126163635Y-44509672D01*
X126504171Y-44509672D01*
X126504171Y-44401167D01*
X126442988Y-44337725D01*
X126223414Y-44337725D01*
X126163635Y-44399762D01*
X126081570Y-44399762D01*
X126081570Y-44382299D01*
X126084608Y-44367871D01*
X126094209Y-44354272D01*
X126176702Y-44267199D01*
X126192662Y-44255165D01*
X126206133Y-44251751D01*
X126459474Y-44251751D01*
X126474147Y-44255276D01*
G37*
G36*
X125416618Y-44262315D02*
G01*
X125408544Y-44275505D01*
X125405505Y-44295776D01*
X125405505Y-44636250D01*
X125408439Y-44649415D01*
X125418023Y-44662751D01*
X125591557Y-44837140D01*
X125604017Y-44846530D01*
X125619279Y-44849658D01*
X125633632Y-44846642D01*
X125647062Y-44837140D01*
X125656475Y-44824776D01*
X125659518Y-44810640D01*
X125656325Y-44794096D01*
X125647001Y-44781331D01*
X125483663Y-44619459D01*
X125483663Y-44312506D01*
X125645596Y-44154909D01*
X125655099Y-44141369D01*
X125658114Y-44126943D01*
X125655043Y-44111368D01*
X125645657Y-44097695D01*
X125633028Y-44087144D01*
X125617875Y-44083712D01*
X125605566Y-44086482D01*
X125590153Y-44096290D01*
X125416618Y-44262315D01*
G37*
M02*
