%TF.GenerationSoftware,KiCad,Pcbnew,9.0.7*%
%TF.CreationDate,2026-05-18T15:38:55-05:00*%
%TF.ProjectId,digital-name-tag,64696769-7461-46c2-9d6e-616d652d7461,rev?*%
%TF.SameCoordinates,Original*%
%TF.FileFunction,Copper,L1,Top*%
%TF.FilePolarity,Positive*%
%FSLAX46Y46*%
G04 Gerber Fmt 4.6, Leading zero omitted, Abs format (unit mm)*
G04 Created by KiCad (PCBNEW 9.0.7) date 2026-05-18 15:38:55*
%MOMM*%
%LPD*%
G01*
G04 APERTURE LIST*
G04 Aperture macros list*
%AMRoundRect*
0 Rectangle with rounded corners*
0 $1 Rounding radius*
0 $2 $3 $4 $5 $6 $7 $8 $9 X,Y pos of 4 corners*
0 Add a 4 corners polygon primitive as box body*
4,1,4,$2,$3,$4,$5,$6,$7,$8,$9,$2,$3,0*
0 Add four circle primitives for the rounded corners*
1,1,$1+$1,$2,$3*
1,1,$1+$1,$4,$5*
1,1,$1+$1,$6,$7*
1,1,$1+$1,$8,$9*
0 Add four rect primitives between the rounded corners*
20,1,$1+$1,$2,$3,$4,$5,0*
20,1,$1+$1,$4,$5,$6,$7,0*
20,1,$1+$1,$6,$7,$8,$9,0*
20,1,$1+$1,$8,$9,$2,$3,0*%
%AMFreePoly0*
4,1,37,0.603843,0.796157,0.639018,0.796157,0.711114,0.766294,0.766294,0.711114,0.796157,0.639018,0.796157,0.603843,0.800000,0.600000,0.800000,-0.600000,0.796157,-0.603843,0.796157,-0.639018,0.766294,-0.711114,0.711114,-0.766294,0.639018,-0.796157,0.603843,-0.796157,0.600000,-0.800000,0.000000,-0.800000,0.000000,-0.796148,-0.078414,-0.796148,-0.232228,-0.765552,-0.377117,-0.705537,
-0.507515,-0.618408,-0.618408,-0.507515,-0.705537,-0.377117,-0.765552,-0.232228,-0.796148,-0.078414,-0.796148,0.078414,-0.765552,0.232228,-0.705537,0.377117,-0.618408,0.507515,-0.507515,0.618408,-0.377117,0.705537,-0.232228,0.765552,-0.078414,0.796148,0.000000,0.796148,0.000000,0.800000,0.600000,0.800000,0.603843,0.796157,0.603843,0.796157,$1*%
%AMFreePoly1*
4,1,37,0.000000,0.796148,0.078414,0.796148,0.232228,0.765552,0.377117,0.705537,0.507515,0.618408,0.618408,0.507515,0.705537,0.377117,0.765552,0.232228,0.796148,0.078414,0.796148,-0.078414,0.765552,-0.232228,0.705537,-0.377117,0.618408,-0.507515,0.507515,-0.618408,0.377117,-0.705537,0.232228,-0.765552,0.078414,-0.796148,0.000000,-0.796148,0.000000,-0.800000,-0.600000,-0.800000,
-0.603843,-0.796157,-0.639018,-0.796157,-0.711114,-0.766294,-0.766294,-0.711114,-0.796157,-0.639018,-0.796157,-0.603843,-0.800000,-0.600000,-0.800000,0.600000,-0.796157,0.603843,-0.796157,0.639018,-0.766294,0.711114,-0.711114,0.766294,-0.639018,0.796157,-0.603843,0.796157,-0.600000,0.800000,0.000000,0.800000,0.000000,0.796148,0.000000,0.796148,$1*%
G04 Aperture macros list end*
%TA.AperFunction,ComponentPad*%
%ADD10C,1.400000*%
%TD*%
%TA.AperFunction,ComponentPad*%
%ADD11RoundRect,0.249999X1.250001X1.250001X-1.250001X1.250001X-1.250001X-1.250001X1.250001X-1.250001X0*%
%TD*%
%TA.AperFunction,ComponentPad*%
%ADD12C,3.000000*%
%TD*%
%TA.AperFunction,ComponentPad*%
%ADD13C,2.000000*%
%TD*%
%TA.AperFunction,ComponentPad*%
%ADD14R,1.700000X1.700000*%
%TD*%
%TA.AperFunction,ComponentPad*%
%ADD15O,1.700000X1.700000*%
%TD*%
%TA.AperFunction,ComponentPad*%
%ADD16R,1.800000X1.800000*%
%TD*%
%TA.AperFunction,ComponentPad*%
%ADD17C,1.800000*%
%TD*%
%TA.AperFunction,ComponentPad*%
%ADD18R,2.000000X2.000000*%
%TD*%
%TA.AperFunction,ComponentPad*%
%ADD19RoundRect,0.200000X0.600000X0.600000X-0.600000X0.600000X-0.600000X-0.600000X0.600000X-0.600000X0*%
%TD*%
%TA.AperFunction,ComponentPad*%
%ADD20C,1.600000*%
%TD*%
%TA.AperFunction,ComponentPad*%
%ADD21FreePoly0,180.000000*%
%TD*%
%TA.AperFunction,ComponentPad*%
%ADD22FreePoly1,180.000000*%
%TD*%
%TA.AperFunction,ViaPad*%
%ADD23C,0.600000*%
%TD*%
%TA.AperFunction,Conductor*%
%ADD24C,0.200000*%
%TD*%
G04 APERTURE END LIST*
D10*
%TO.P,R5,1*%
%TO.N,GND*%
X156600000Y-101790000D03*
%TO.P,R5,2*%
%TO.N,batterylevel*%
X156600000Y-109410000D03*
%TD*%
%TO.P,R3,1*%
%TO.N,Net-(D3-A)*%
X145000000Y-66380000D03*
%TO.P,R3,2*%
%TO.N,LED3*%
X145000000Y-74000000D03*
%TD*%
%TO.P,R2,1*%
%TO.N,Net-(D2-A)*%
X152200000Y-65980000D03*
%TO.P,R2,2*%
%TO.N,LED2*%
X152200000Y-73600000D03*
%TD*%
%TO.P,R1,1*%
%TO.N,Net-(D1-A)*%
X157600000Y-67000000D03*
%TO.P,R1,2*%
%TO.N,LED1*%
X157600000Y-74620000D03*
%TD*%
D11*
%TO.P,BT1,1,+*%
%TO.N,VSYS*%
X152300000Y-119200000D03*
D12*
%TO.P,BT1,2,-*%
%TO.N,GND*%
X152300000Y-106400000D03*
%TD*%
D13*
%TO.P,SW4,1,1*%
%TO.N,GND*%
X193950000Y-53550000D03*
X187450000Y-53550000D03*
%TO.P,SW4,2,2*%
%TO.N,button4*%
X193950000Y-49050000D03*
X187450000Y-49050000D03*
%TD*%
%TO.P,SW3,1,1*%
%TO.N,GND*%
X194100000Y-63400000D03*
X187600000Y-63400000D03*
%TO.P,SW3,2,2*%
%TO.N,button3*%
X194100000Y-58900000D03*
X187600000Y-58900000D03*
%TD*%
%TO.P,SW2,1,1*%
%TO.N,GND*%
X194200000Y-72000000D03*
X187700000Y-72000000D03*
%TO.P,SW2,2,2*%
%TO.N,button2*%
X194200000Y-67500000D03*
X187700000Y-67500000D03*
%TD*%
%TO.P,SW1,1,1*%
%TO.N,GND*%
X194200000Y-80550000D03*
X187700000Y-80550000D03*
%TO.P,SW1,2,2*%
%TO.N,button1*%
X194200000Y-76050000D03*
X187700000Y-76050000D03*
%TD*%
D10*
%TO.P,R4,1*%
%TO.N,batterylevel*%
X156600000Y-111590000D03*
%TO.P,R4,2*%
%TO.N,VSYS*%
X156600000Y-119210000D03*
%TD*%
D14*
%TO.P,J1,1,Pin_1*%
%TO.N,GND*%
X138015000Y-63705000D03*
D15*
%TO.P,J1,2,Pin_2*%
%TO.N,+3.3V*%
X138015000Y-66245000D03*
%TO.P,J1,3,Pin_3*%
%TO.N,SCL*%
X138015000Y-68785000D03*
%TO.P,J1,4,Pin_4*%
%TO.N,SDA*%
X138015000Y-71325000D03*
%TD*%
D16*
%TO.P,D3,1,K*%
%TO.N,GND*%
X147475000Y-62000000D03*
D17*
%TO.P,D3,2,A*%
%TO.N,Net-(D3-A)*%
X144935000Y-62000000D03*
%TD*%
D16*
%TO.P,D2,1,K*%
%TO.N,GND*%
X154670000Y-62600000D03*
D17*
%TO.P,D2,2,A*%
%TO.N,Net-(D2-A)*%
X152130000Y-62600000D03*
%TD*%
D16*
%TO.P,D1,1,K*%
%TO.N,GND*%
X161400000Y-62600000D03*
D17*
%TO.P,D1,2,A*%
%TO.N,Net-(D1-A)*%
X158860000Y-62600000D03*
%TD*%
D18*
%TO.P,BZ1,1,+*%
%TO.N,buzzer*%
X177400000Y-62200000D03*
D13*
%TO.P,BZ1,2,-*%
%TO.N,GND*%
X167400000Y-62200000D03*
%TD*%
D19*
%TO.P,A1,1,GPIO0*%
%TO.N,SDA*%
X179590000Y-121805000D03*
D20*
%TO.P,A1,2,GPIO1*%
%TO.N,SCL*%
X179590000Y-119265000D03*
D21*
%TO.P,A1,3,GND*%
%TO.N,GND*%
X179590000Y-116725000D03*
D20*
%TO.P,A1,4,GPIO2*%
%TO.N,button1*%
X179590000Y-114185000D03*
%TO.P,A1,5,GPIO3*%
%TO.N,button2*%
X179590000Y-111645000D03*
%TO.P,A1,6,GPIO4*%
%TO.N,button3*%
X179590000Y-109105000D03*
%TO.P,A1,7,GPIO5*%
%TO.N,button4*%
X179590000Y-106565000D03*
D21*
%TO.P,A1,8,GND*%
%TO.N,GND*%
X179590000Y-104025000D03*
D20*
%TO.P,A1,9,GPIO6*%
%TO.N,buzzer*%
X179590000Y-101485000D03*
%TO.P,A1,10,GPIO7*%
%TO.N,LED1*%
X179590000Y-98945000D03*
%TO.P,A1,11,GPIO8*%
%TO.N,LED2*%
X179590000Y-96405000D03*
%TO.P,A1,12,GPIO9*%
%TO.N,LED3*%
X179590000Y-93865000D03*
D21*
%TO.P,A1,13,GND*%
%TO.N,GND*%
X179590000Y-91325000D03*
D20*
%TO.P,A1,14,GPIO10*%
%TO.N,unconnected-(A1-GPIO10-Pad14)*%
X179590000Y-88785000D03*
%TO.P,A1,15,GPIO11*%
%TO.N,unconnected-(A1-GPIO11-Pad15)*%
X179590000Y-86245000D03*
%TO.P,A1,16,GPIO12*%
%TO.N,unconnected-(A1-GPIO12-Pad16)*%
X179590000Y-83705000D03*
%TO.P,A1,17,GPIO13*%
%TO.N,unconnected-(A1-GPIO13-Pad17)*%
X179590000Y-81165000D03*
D21*
%TO.P,A1,18,GND*%
%TO.N,GND*%
X179590000Y-78625000D03*
D20*
%TO.P,A1,19,GPIO14*%
%TO.N,unconnected-(A1-GPIO14-Pad19)*%
X179590000Y-76085000D03*
%TO.P,A1,20,GPIO15*%
%TO.N,unconnected-(A1-GPIO15-Pad20)*%
X179590000Y-73545000D03*
%TO.P,A1,21,GPIO16*%
%TO.N,unconnected-(A1-GPIO16-Pad21)*%
X161810000Y-73545000D03*
%TO.P,A1,22,GPIO17*%
%TO.N,unconnected-(A1-GPIO17-Pad22)*%
X161810000Y-76085000D03*
D22*
%TO.P,A1,23,GND*%
%TO.N,GND*%
X161810000Y-78625000D03*
D20*
%TO.P,A1,24,GPIO18*%
%TO.N,unconnected-(A1-GPIO18-Pad24)*%
X161810000Y-81165000D03*
%TO.P,A1,25,GPIO19*%
%TO.N,unconnected-(A1-GPIO19-Pad25)*%
X161810000Y-83705000D03*
%TO.P,A1,26,GPIO20*%
%TO.N,unconnected-(A1-GPIO20-Pad26)*%
X161810000Y-86245000D03*
%TO.P,A1,27,GPIO21*%
%TO.N,unconnected-(A1-GPIO21-Pad27)*%
X161810000Y-88785000D03*
D22*
%TO.P,A1,28,GND*%
%TO.N,GND*%
X161810000Y-91325000D03*
D20*
%TO.P,A1,29,GPIO22*%
%TO.N,unconnected-(A1-GPIO22-Pad29)*%
X161810000Y-93865000D03*
%TO.P,A1,30,RUN*%
%TO.N,unconnected-(A1-RUN-Pad30)*%
X161810000Y-96405000D03*
%TO.P,A1,31,GPIO24*%
%TO.N,unconnected-(A1-GPIO24-Pad31)*%
X161810000Y-98945000D03*
%TO.P,A1,32,GPIO23*%
%TO.N,unconnected-(A1-GPIO23-Pad32)*%
X161810000Y-101485000D03*
D22*
%TO.P,A1,33,AGND*%
%TO.N,unconnected-(A1-AGND-Pad33)*%
X161810000Y-104025000D03*
D20*
%TO.P,A1,34,GPIO26*%
%TO.N,batterylevel*%
X161810000Y-106565000D03*
%TO.P,A1,35,GPIO27*%
%TO.N,unconnected-(A1-GPIO27-Pad35)*%
X161810000Y-109105000D03*
%TO.P,A1,36,3V3*%
%TO.N,+3.3V*%
X161810000Y-111645000D03*
%TO.P,A1,37,GPIO28*%
%TO.N,unconnected-(A1-GPIO28-Pad37)*%
X161810000Y-114185000D03*
D22*
%TO.P,A1,38,GND*%
%TO.N,GND*%
X161810000Y-116725000D03*
D20*
%TO.P,A1,39,VSYS*%
%TO.N,VSYS*%
X161810000Y-119265000D03*
%TO.P,A1,40,VBUS*%
%TO.N,unconnected-(A1-VBUS-Pad40)*%
X161810000Y-121805000D03*
%TD*%
D23*
%TO.N,+3.3V*%
X166600000Y-100800000D03*
%TO.N,LED3*%
X176000000Y-90600000D03*
%TO.N,LED2*%
X173400000Y-89800000D03*
X170400000Y-90200000D03*
%TD*%
D24*
%TO.N,+3.3V*%
X166600000Y-100800000D02*
X166600000Y-106855000D01*
X166600000Y-106855000D02*
X161810000Y-111645000D01*
%TO.N,LED3*%
X176000000Y-90600000D02*
X176325000Y-90600000D01*
X176325000Y-90600000D02*
X179590000Y-93865000D01*
%TO.N,LED2*%
X173400000Y-89800000D02*
X173600000Y-90000000D01*
X152200000Y-73600000D02*
X161204000Y-82604000D01*
X161204000Y-82604000D02*
X162804000Y-82604000D01*
X162804000Y-82604000D02*
X170400000Y-90200000D01*
X173600000Y-90000000D02*
X173600000Y-90415000D01*
X173600000Y-90415000D02*
X179590000Y-96405000D01*
%TO.N,LED1*%
X157600000Y-74620000D02*
X157600000Y-76310050D01*
X157600000Y-76310050D02*
X161353950Y-80064000D01*
X161353950Y-80064000D02*
X162266050Y-80064000D01*
X162266050Y-80064000D02*
X178489000Y-96286950D01*
X178489000Y-96286950D02*
X178489000Y-97844000D01*
X178489000Y-97844000D02*
X179590000Y-98945000D01*
%TO.N,GND*%
X187450000Y-53550000D02*
X180691000Y-60309000D01*
X180691000Y-60309000D02*
X180691000Y-77524000D01*
X180691000Y-77524000D02*
X179590000Y-78625000D01*
X187600000Y-63400000D02*
X180691000Y-70309000D01*
X180691000Y-70309000D02*
X180691000Y-77524000D01*
X187700000Y-72000000D02*
X181075000Y-78625000D01*
X181075000Y-78625000D02*
X179590000Y-78625000D01*
X187700000Y-80550000D02*
X185775000Y-78625000D01*
X185775000Y-78625000D02*
X179590000Y-78625000D01*
%TO.N,VSYS*%
X152300000Y-119200000D02*
X156590000Y-119200000D01*
X156590000Y-119200000D02*
X156600000Y-119210000D01*
%TO.N,GND*%
X152300000Y-106400000D02*
X156600000Y-102100000D01*
X156600000Y-102100000D02*
X156600000Y-101790000D01*
%TO.N,VSYS*%
X156600000Y-119210000D02*
X161755000Y-119210000D01*
X161755000Y-119210000D02*
X161810000Y-119265000D01*
%TO.N,GND*%
X156600000Y-101790000D02*
X156600000Y-96535000D01*
X156600000Y-96535000D02*
X161810000Y-91325000D01*
%TO.N,batterylevel*%
X156600000Y-109410000D02*
X158965000Y-109410000D01*
X158965000Y-109410000D02*
X161810000Y-106565000D01*
X156600000Y-109410000D02*
X156600000Y-111590000D01*
%TD*%
M02*
